<svg width="360" height="306" viewBox="0 0 360 306" fill="none" xmlns="http://www.w3.org/2000/svg">
<rect x="2.5" y="2.5" width="355" height="301" rx="7.5" fill="#ECAFD2" stroke="#895674" stroke-width="5"/>
<path d="M130.974 47.294H122.784L121.236 53H116.142L123.936 28.106H129.984L137.76 53H132.522L130.974 47.294ZM123.666 43.604H130.056L126.87 31.796L123.666 43.604ZM140.446 53V49.706H143.128V37.214H140.446V33.938H146.746L147.628 38.312C148.324 36.692 149.2 35.474 150.256 34.658C151.312 33.83 152.638 33.416 154.234 33.416C154.846 33.416 155.386 33.464 155.854 33.56C156.334 33.656 156.79 33.782 157.222 33.938L155.8 37.934C155.428 37.838 155.074 37.766 154.738 37.718C154.402 37.658 154.024 37.628 153.604 37.628C152.284 37.628 151.132 38.144 150.148 39.176C149.176 40.196 148.42 41.582 147.88 43.334V49.706H151.678V53H140.446ZM153.208 41.372V36.314L153.856 33.938H157.222L156.376 41.372H153.208ZM177.944 51.938C177.236 52.406 176.378 52.79 175.37 53.09C174.362 53.39 173.27 53.54 172.094 53.54C169.766 53.54 168.014 52.94 166.838 51.74C165.662 50.528 165.074 48.92 165.074 46.916V37.304H160.934V33.938H165.074V29.744L169.826 29.168V33.938H176.126L175.64 37.304H169.826V46.898C169.826 47.882 170.066 48.602 170.546 49.058C171.026 49.514 171.8 49.742 172.868 49.742C173.552 49.742 174.176 49.664 174.74 49.508C175.316 49.34 175.838 49.13 176.306 48.878L177.944 51.938ZM193.68 33.938V49.634H198.702V53H183.348V49.634H188.928V37.304H183.528V33.938H193.68ZM190.602 24.326C191.478 24.326 192.186 24.596 192.726 25.136C193.278 25.676 193.554 26.348 193.554 27.152C193.554 27.956 193.278 28.634 192.726 29.186C192.186 29.726 191.478 29.996 190.602 29.996C189.726 29.996 189.012 29.726 188.46 29.186C187.908 28.634 187.632 27.956 187.632 27.152C187.632 26.348 187.908 25.676 188.46 25.136C189.012 24.596 189.726 24.326 190.602 24.326ZM211.198 50.03C212.314 50.03 213.208 49.838 213.88 49.454C214.564 49.058 214.906 48.506 214.906 47.798C214.906 47.33 214.792 46.934 214.564 46.61C214.348 46.286 213.916 45.986 213.268 45.71C212.62 45.422 211.648 45.104 210.352 44.756C209.128 44.444 208.054 44.06 207.13 43.604C206.218 43.136 205.504 42.536 204.988 41.804C204.484 41.072 204.232 40.148 204.232 39.032C204.232 37.916 204.544 36.938 205.168 36.098C205.792 35.246 206.692 34.586 207.868 34.118C209.056 33.638 210.484 33.398 212.152 33.398C213.784 33.398 215.212 33.614 216.436 34.046C217.66 34.466 218.71 34.994 219.586 35.63L217.642 38.528C216.874 38.036 216.04 37.64 215.14 37.34C214.252 37.028 213.292 36.872 212.26 36.872C211.144 36.872 210.328 37.034 209.812 37.358C209.308 37.682 209.056 38.132 209.056 38.708C209.056 39.116 209.182 39.464 209.434 39.752C209.698 40.028 210.166 40.298 210.838 40.562C211.522 40.814 212.494 41.12 213.754 41.48C214.99 41.816 216.064 42.212 216.976 42.668C217.9 43.124 218.614 43.73 219.118 44.486C219.622 45.242 219.874 46.232 219.874 47.456C219.874 48.836 219.472 49.976 218.668 50.876C217.864 51.776 216.802 52.448 215.482 52.892C214.174 53.324 212.752 53.54 211.216 53.54C209.416 53.54 207.844 53.282 206.5 52.766C205.156 52.25 204.016 51.584 203.08 50.768L205.546 47.996C206.29 48.584 207.136 49.07 208.084 49.454C209.044 49.838 210.082 50.03 211.198 50.03ZM241.622 51.938C240.914 52.406 240.056 52.79 239.048 53.09C238.04 53.39 236.948 53.54 235.772 53.54C233.444 53.54 231.692 52.94 230.516 51.74C229.34 50.528 228.752 48.92 228.752 46.916V37.304H224.612V33.938H228.752V29.744L233.504 29.168V33.938H239.804L239.318 37.304H233.504V46.898C233.504 47.882 233.744 48.602 234.224 49.058C234.704 49.514 235.478 49.742 236.546 49.742C237.23 49.742 237.854 49.664 238.418 49.508C238.994 49.34 239.516 49.13 239.984 48.878L241.622 51.938Z" fill="#895674"/>
<path d="M35.14 243.03C35.14 243.87 34.9233 244.61 34.49 245.25C34.0633 245.89 33.4467 246.393 32.64 246.76C31.8333 247.12 30.8567 247.3 29.71 247.3C28.51 247.3 27.48 247.123 26.62 246.77C25.76 246.41 25.04 245.95 24.46 245.39L25.9 243.78C26.4 244.227 26.96 244.577 27.58 244.83C28.2 245.083 28.8967 245.21 29.67 245.21C30.1633 245.21 30.6067 245.133 31 244.98C31.4 244.827 31.7133 244.603 31.94 244.31C32.1733 244.01 32.29 243.643 32.29 243.21C32.29 242.83 32.21 242.51 32.05 242.25C31.89 241.99 31.6133 241.757 31.22 241.55C30.8333 241.343 30.2933 241.137 29.6 240.93C28.58 240.617 27.74 240.273 27.08 239.9C26.42 239.52 25.93 239.073 25.61 238.56C25.29 238.04 25.13 237.427 25.13 236.72C25.13 235.927 25.35 235.243 25.79 234.67C26.23 234.09 26.8233 233.647 27.57 233.34C28.3233 233.027 29.1633 232.87 30.09 232.87C31.1167 232.87 32.02 233.02 32.8 233.32C33.58 233.613 34.2667 234.033 34.86 234.58L33.49 236.13C33.0167 235.723 32.5033 235.423 31.95 235.23C31.4033 235.037 30.8467 234.94 30.28 234.94C29.8333 234.94 29.4333 235 29.08 235.12C28.7333 235.24 28.46 235.417 28.26 235.65C28.06 235.883 27.96 236.18 27.96 236.54C27.96 236.867 28.05 237.147 28.23 237.38C28.4167 237.607 28.7333 237.82 29.18 238.02C29.6267 238.213 30.24 238.433 31.02 238.68C31.84 238.927 32.5567 239.223 33.17 239.57C33.79 239.917 34.2733 240.367 34.62 240.92C34.9667 241.467 35.14 242.17 35.14 243.03ZM40.0422 231.93V237.6C40.4822 237.1 40.9755 236.727 41.5222 236.48C42.0755 236.233 42.6522 236.11 43.2522 236.11C44.2255 236.11 44.9555 236.387 45.4422 236.94C45.9355 237.487 46.1822 238.257 46.1822 239.25V247H43.5422V239.84C43.5422 239.2 43.4422 238.747 43.2422 238.48C43.0489 238.213 42.7155 238.08 42.2422 238.08C41.9622 238.08 41.6889 238.147 41.4222 238.28C41.1622 238.407 40.9155 238.58 40.6822 238.8C40.4555 239.02 40.2422 239.267 40.0422 239.54V247H37.4022V232.19L40.0422 231.93ZM57.6444 244.21C57.6444 244.617 57.7044 244.913 57.8244 245.1C57.9444 245.28 58.1377 245.417 58.4044 245.51L57.8344 247.28C57.2677 247.22 56.7844 247.08 56.3844 246.86C55.991 246.633 55.6877 246.297 55.4744 245.85C55.0744 246.337 54.5677 246.7 53.9544 246.94C53.3477 247.18 52.711 247.3 52.0444 247.3C50.9644 247.3 50.1077 246.993 49.4744 246.38C48.841 245.767 48.5244 244.97 48.5244 243.99C48.5244 242.863 48.9644 241.997 49.8444 241.39C50.731 240.777 51.9844 240.47 53.6044 240.47H55.0844V239.9C55.0844 239.273 54.891 238.82 54.5044 238.54C54.1177 238.253 53.561 238.11 52.8344 238.11C52.4944 238.11 52.0677 238.157 51.5544 238.25C51.0477 238.337 50.5244 238.473 49.9844 238.66L49.3544 236.85C50.0277 236.597 50.7044 236.41 51.3844 236.29C52.071 236.17 52.6944 236.11 53.2544 236.11C54.741 236.11 55.8444 236.427 56.5644 237.06C57.2844 237.687 57.6444 238.577 57.6444 239.73V244.21ZM52.9044 245.39C53.3044 245.39 53.7077 245.277 54.1144 245.05C54.5277 244.823 54.851 244.507 55.0844 244.1V242.04H54.0444C53.0644 242.04 52.3544 242.197 51.9144 242.51C51.481 242.823 51.2644 243.267 51.2644 243.84C51.2644 244.333 51.4044 244.717 51.6844 244.99C51.9644 245.257 52.371 245.39 52.9044 245.39ZM61.0866 247V245.17H62.5766V238.23H61.0866V236.41H64.5866L65.0766 238.84C65.4632 237.94 65.9499 237.263 66.5366 236.81C67.1232 236.35 67.8599 236.12 68.7466 236.12C69.0866 236.12 69.3866 236.147 69.6466 236.2C69.9132 236.253 70.1666 236.323 70.4066 236.41L69.6166 238.63C69.4099 238.577 69.2132 238.537 69.0266 238.51C68.8399 238.477 68.6299 238.46 68.3966 238.46C67.6632 238.46 67.0232 238.747 66.4766 239.32C65.9366 239.887 65.5166 240.657 65.2166 241.63V245.17H67.3266V247H61.0866ZM68.1766 240.54V237.73L68.5366 236.41H70.4066L69.9366 240.54H68.1766ZM75.0288 242.51C75.0821 243.17 75.2321 243.707 75.4788 244.12C75.7321 244.533 76.0554 244.837 76.4488 245.03C76.8421 245.223 77.2788 245.32 77.7588 245.32C78.2654 245.32 78.7421 245.24 79.1888 245.08C79.6354 244.92 80.0754 244.697 80.5088 244.41L81.6088 245.92C81.1154 246.333 80.5254 246.667 79.8388 246.92C79.1588 247.173 78.4088 247.3 77.5888 247.3C76.4421 247.3 75.4754 247.063 74.6888 246.59C73.9088 246.117 73.3188 245.46 72.9188 244.62C72.5188 243.78 72.3188 242.813 72.3188 241.72C72.3188 240.667 72.5154 239.717 72.9088 238.87C73.3021 238.023 73.8688 237.353 74.6088 236.86C75.3488 236.36 76.2421 236.11 77.2888 236.11C78.2621 236.11 79.1021 236.323 79.8088 236.75C80.5154 237.177 81.0621 237.79 81.4488 238.59C81.8354 239.383 82.0288 240.34 82.0288 241.46C82.0288 241.64 82.0221 241.823 82.0088 242.01C82.0021 242.197 81.9921 242.363 81.9788 242.51H75.0288ZM77.2988 237.97C76.6588 237.97 76.1321 238.2 75.7188 238.66C75.3121 239.113 75.0721 239.833 74.9988 240.82H79.4588C79.4454 239.927 79.2588 239.23 78.8988 238.73C78.5454 238.223 78.0121 237.97 77.2988 237.97ZM105.953 236.41L102.363 247.02C102.07 247.887 101.69 248.63 101.223 249.25C100.756 249.87 100.166 250.36 99.4531 250.72C98.7465 251.087 97.8798 251.303 96.8531 251.37L96.5231 249.46C97.2365 249.36 97.8065 249.21 98.2331 249.01C98.6598 248.81 98.9998 248.547 99.2531 248.22C99.5131 247.893 99.7365 247.487 99.9231 247H99.0231L95.5531 236.41H98.3431L100.743 245.24L103.243 236.41H105.953ZM112.555 236.11C113.609 236.11 114.502 236.34 115.235 236.8C115.969 237.26 116.525 237.91 116.905 238.75C117.292 239.583 117.485 240.56 117.485 241.68C117.485 242.827 117.292 243.82 116.905 244.66C116.519 245.5 115.959 246.15 115.225 246.61C114.492 247.07 113.599 247.3 112.545 247.3C111.499 247.3 110.605 247.077 109.865 246.63C109.132 246.177 108.572 245.533 108.185 244.7C107.799 243.86 107.605 242.86 107.605 241.7C107.605 240.593 107.799 239.62 108.185 238.78C108.572 237.94 109.135 237.287 109.875 236.82C110.615 236.347 111.509 236.11 112.555 236.11ZM112.555 238.1C111.815 238.1 111.262 238.39 110.895 238.97C110.535 239.55 110.355 240.46 110.355 241.7C110.355 242.953 110.535 243.87 110.895 244.45C111.255 245.023 111.805 245.31 112.545 245.31C113.285 245.31 113.835 245.023 114.195 244.45C114.555 243.87 114.735 242.947 114.735 241.68C114.735 240.447 114.555 239.543 114.195 238.97C113.835 238.39 113.289 238.1 112.555 238.1ZM122.588 236.41V243.75C122.588 244.323 122.701 244.727 122.928 244.96C123.154 245.193 123.484 245.31 123.918 245.31C124.331 245.31 124.734 245.187 125.128 244.94C125.521 244.687 125.841 244.367 126.088 243.98V236.41H128.728V247H126.428L126.288 245.7C125.908 246.22 125.421 246.617 124.828 246.89C124.234 247.163 123.621 247.3 122.988 247.3C121.968 247.3 121.204 247.013 120.698 246.44C120.198 245.86 119.948 245.07 119.948 244.07V236.41H122.588ZM131.84 247V245.17H133.33V238.23H131.84V236.41H135.34L135.83 238.84C136.216 237.94 136.703 237.263 137.29 236.81C137.876 236.35 138.613 236.12 139.5 236.12C139.84 236.12 140.14 236.147 140.4 236.2C140.666 236.253 140.92 236.323 141.16 236.41L140.37 238.63C140.163 238.577 139.966 238.537 139.78 238.51C139.593 238.477 139.383 238.46 139.15 238.46C138.416 238.46 137.776 238.747 137.23 239.32C136.69 239.887 136.27 240.657 135.97 241.63V245.17H138.08V247H131.84ZM138.93 240.54V237.73L139.29 236.41H141.16L140.69 240.54H138.93ZM162.854 236.11C163.307 236.11 163.694 236.207 164.014 236.4C164.334 236.587 164.581 236.903 164.754 237.35C164.927 237.79 165.014 238.39 165.014 239.15V247H162.714V239.48C162.714 239 162.674 238.66 162.594 238.46C162.521 238.26 162.351 238.16 162.084 238.16C161.864 238.16 161.641 238.227 161.414 238.36C161.194 238.487 160.964 238.717 160.724 239.05V247H158.734V239.48C158.734 239 158.694 238.66 158.614 238.46C158.541 238.26 158.371 238.16 158.104 238.16C157.877 238.16 157.654 238.227 157.434 238.36C157.214 238.487 156.984 238.717 156.744 239.05V247H154.414V236.41H156.384L156.554 237.51C156.867 237.07 157.197 236.727 157.544 236.48C157.891 236.233 158.307 236.11 158.794 236.11C159.194 236.11 159.547 236.21 159.854 236.41C160.167 236.603 160.391 236.937 160.524 237.41C160.831 237.023 161.174 236.71 161.554 236.47C161.934 236.23 162.367 236.11 162.854 236.11ZM169.756 236.41V243.75C169.756 244.323 169.87 244.727 170.096 244.96C170.323 245.193 170.653 245.31 171.086 245.31C171.5 245.31 171.903 245.187 172.296 244.94C172.69 244.687 173.01 244.367 173.256 243.98V236.41H175.896V247H173.596L173.456 245.7C173.076 246.22 172.59 246.617 171.996 246.89C171.403 247.163 170.79 247.3 170.156 247.3C169.136 247.3 168.373 247.013 167.866 246.44C167.366 245.86 167.116 245.07 167.116 244.07V236.41H169.756ZM182.938 245.35C183.558 245.35 184.055 245.243 184.428 245.03C184.808 244.81 184.998 244.503 184.998 244.11C184.998 243.85 184.935 243.63 184.808 243.45C184.688 243.27 184.448 243.103 184.088 242.95C183.728 242.79 183.188 242.613 182.468 242.42C181.788 242.247 181.192 242.033 180.678 241.78C180.172 241.52 179.775 241.187 179.488 240.78C179.208 240.373 179.068 239.86 179.068 239.24C179.068 238.62 179.242 238.077 179.588 237.61C179.935 237.137 180.435 236.77 181.088 236.51C181.748 236.243 182.542 236.11 183.468 236.11C184.375 236.11 185.168 236.23 185.848 236.47C186.528 236.703 187.112 236.997 187.598 237.35L186.518 238.96C186.092 238.687 185.628 238.467 185.128 238.3C184.635 238.127 184.102 238.04 183.528 238.04C182.908 238.04 182.455 238.13 182.168 238.31C181.888 238.49 181.748 238.74 181.748 239.06C181.748 239.287 181.818 239.48 181.958 239.64C182.105 239.793 182.365 239.943 182.738 240.09C183.118 240.23 183.658 240.4 184.358 240.6C185.045 240.787 185.642 241.007 186.148 241.26C186.662 241.513 187.058 241.85 187.338 242.27C187.618 242.69 187.758 243.24 187.758 243.92C187.758 244.687 187.535 245.32 187.088 245.82C186.642 246.32 186.052 246.693 185.318 246.94C184.592 247.18 183.802 247.3 182.948 247.3C181.948 247.3 181.075 247.157 180.328 246.87C179.582 246.583 178.948 246.213 178.428 245.76L179.798 244.22C180.212 244.547 180.682 244.817 181.208 245.03C181.742 245.243 182.318 245.35 182.938 245.35ZM196.791 236.41V245.13H199.581V247H191.051V245.13H194.151V238.28H191.151V236.41H196.791ZM195.081 231.07C195.567 231.07 195.961 231.22 196.261 231.52C196.567 231.82 196.721 232.193 196.721 232.64C196.721 233.087 196.567 233.463 196.261 233.77C195.961 234.07 195.567 234.22 195.081 234.22C194.594 234.22 194.197 234.07 193.891 233.77C193.584 233.463 193.431 233.087 193.431 232.64C193.431 232.193 193.584 231.82 193.891 231.52C194.197 231.22 194.594 231.07 195.081 231.07ZM207.823 245.18C208.289 245.18 208.726 245.093 209.133 244.92C209.546 244.747 209.943 244.527 210.323 244.26L211.523 245.95C211.056 246.343 210.493 246.667 209.833 246.92C209.173 247.173 208.466 247.3 207.713 247.3C206.606 247.3 205.656 247.07 204.863 246.61C204.076 246.143 203.469 245.497 203.043 244.67C202.623 243.837 202.413 242.87 202.413 241.77C202.413 240.683 202.626 239.713 203.053 238.86C203.486 238 204.099 237.327 204.893 236.84C205.693 236.353 206.646 236.11 207.753 236.11C208.513 236.11 209.199 236.22 209.813 236.44C210.433 236.653 210.999 236.973 211.513 237.4L210.343 239.02C209.949 238.747 209.543 238.54 209.123 238.4C208.709 238.253 208.279 238.18 207.833 238.18C207.053 238.18 206.416 238.463 205.923 239.03C205.436 239.59 205.193 240.503 205.193 241.77C205.193 242.603 205.306 243.27 205.533 243.77C205.766 244.27 206.079 244.63 206.473 244.85C206.873 245.07 207.323 245.18 207.823 245.18ZM234.527 244.21C234.527 244.617 234.587 244.913 234.707 245.1C234.827 245.28 235.021 245.417 235.287 245.51L234.717 247.28C234.151 247.22 233.667 247.08 233.267 246.86C232.874 246.633 232.571 246.297 232.357 245.85C231.957 246.337 231.451 246.7 230.837 246.94C230.231 247.18 229.594 247.3 228.927 247.3C227.847 247.3 226.991 246.993 226.357 246.38C225.724 245.767 225.407 244.97 225.407 243.99C225.407 242.863 225.847 241.997 226.727 241.39C227.614 240.777 228.867 240.47 230.487 240.47H231.967V239.9C231.967 239.273 231.774 238.82 231.387 238.54C231.001 238.253 230.444 238.11 229.717 238.11C229.377 238.11 228.951 238.157 228.437 238.25C227.931 238.337 227.407 238.473 226.867 238.66L226.237 236.85C226.911 236.597 227.587 236.41 228.267 236.29C228.954 236.17 229.577 236.11 230.137 236.11C231.624 236.11 232.727 236.427 233.447 237.06C234.167 237.687 234.527 238.577 234.527 239.73V244.21ZM229.787 245.39C230.187 245.39 230.591 245.277 230.997 245.05C231.411 244.823 231.734 244.507 231.967 244.1V242.04H230.927C229.947 242.04 229.237 242.197 228.797 242.51C228.364 242.823 228.147 243.267 228.147 243.84C228.147 244.333 228.287 244.717 228.567 244.99C228.847 245.257 229.254 245.39 229.787 245.39ZM237.869 247V236.41H240.169L240.359 237.72C240.813 237.187 241.323 236.787 241.889 236.52C242.456 236.247 243.066 236.11 243.719 236.11C244.673 236.11 245.399 236.387 245.899 236.94C246.399 237.487 246.649 238.257 246.649 239.25V247H244.009V240.28C244.009 239.747 243.976 239.32 243.909 239C243.843 238.673 243.716 238.44 243.529 238.3C243.343 238.153 243.073 238.08 242.719 238.08C242.433 238.08 242.156 238.143 241.889 238.27C241.629 238.397 241.383 238.567 241.149 238.78C240.923 238.993 240.709 239.23 240.509 239.49V247H237.869ZM255.802 231.9L258.442 232.18V247H256.102L255.942 245.75C255.615 246.217 255.205 246.593 254.712 246.88C254.218 247.16 253.645 247.3 252.992 247.3C252.098 247.3 251.358 247.067 250.772 246.6C250.192 246.133 249.758 245.48 249.472 244.64C249.192 243.793 249.052 242.81 249.052 241.69C249.052 240.61 249.218 239.65 249.552 238.81C249.885 237.97 250.365 237.31 250.992 236.83C251.625 236.35 252.375 236.11 253.242 236.11C253.762 236.11 254.235 236.2 254.662 236.38C255.088 236.56 255.468 236.827 255.802 237.18V231.9ZM253.952 238.08C253.285 238.08 252.758 238.37 252.372 238.95C251.992 239.523 251.802 240.44 251.802 241.7C251.802 242.587 251.882 243.297 252.042 243.83C252.202 244.357 252.428 244.737 252.722 244.97C253.015 245.203 253.362 245.32 253.762 245.32C254.202 245.32 254.588 245.19 254.922 244.93C255.262 244.663 255.555 244.333 255.802 243.94V239.12C255.555 238.793 255.278 238.54 254.972 238.36C254.672 238.173 254.332 238.08 253.952 238.08ZM282.376 234.92L283.036 236.98C282.636 237.12 282.186 237.22 281.686 237.28C281.186 237.333 280.613 237.36 279.966 237.36C280.613 237.64 281.103 237.997 281.436 238.43C281.776 238.857 281.946 239.4 281.946 240.06C281.946 240.747 281.769 241.36 281.416 241.9C281.069 242.44 280.573 242.863 279.926 243.17C279.286 243.477 278.523 243.63 277.636 243.63C277.363 243.63 277.119 243.617 276.906 243.59C276.693 243.563 276.486 243.527 276.286 243.48C276.153 243.553 276.049 243.66 275.976 243.8C275.903 243.94 275.866 244.083 275.866 244.23C275.866 244.43 275.943 244.603 276.096 244.75C276.256 244.89 276.596 244.96 277.116 244.96H278.916C279.696 244.96 280.379 245.093 280.966 245.36C281.559 245.62 282.019 245.973 282.346 246.42C282.679 246.867 282.846 247.38 282.846 247.96C282.846 249.027 282.383 249.86 281.456 250.46C280.529 251.06 279.176 251.36 277.396 251.36C276.123 251.36 275.129 251.23 274.416 250.97C273.709 250.71 273.213 250.33 272.926 249.83C272.639 249.337 272.496 248.74 272.496 248.04H274.846C274.846 248.38 274.913 248.66 275.046 248.88C275.186 249.1 275.443 249.263 275.816 249.37C276.196 249.477 276.739 249.53 277.446 249.53C278.153 249.53 278.706 249.473 279.106 249.36C279.513 249.247 279.799 249.083 279.966 248.87C280.133 248.663 280.216 248.42 280.216 248.14C280.216 247.76 280.056 247.463 279.736 247.25C279.416 247.037 278.963 246.93 278.376 246.93H276.626C275.559 246.93 274.783 246.723 274.296 246.31C273.809 245.89 273.566 245.407 273.566 244.86C273.566 244.487 273.666 244.13 273.866 243.79C274.073 243.443 274.366 243.15 274.746 242.91C274.093 242.563 273.619 242.15 273.326 241.67C273.039 241.183 272.896 240.597 272.896 239.91C272.896 239.143 273.089 238.477 273.476 237.91C273.863 237.343 274.399 236.903 275.086 236.59C275.773 236.277 276.563 236.12 277.456 236.12C278.276 236.127 278.973 236.077 279.546 235.97C280.126 235.863 280.636 235.717 281.076 235.53C281.523 235.343 281.956 235.14 282.376 234.92ZM277.506 237.88C276.879 237.88 276.399 238.063 276.066 238.43C275.739 238.797 275.576 239.283 275.576 239.89C275.576 240.517 275.746 241.013 276.086 241.38C276.426 241.747 276.903 241.93 277.516 241.93C278.123 241.93 278.583 241.753 278.896 241.4C279.216 241.04 279.376 240.527 279.376 239.86C279.376 239.193 279.216 238.697 278.896 238.37C278.583 238.043 278.119 237.88 277.506 237.88ZM285.138 247V245.17H286.628V238.23H285.138V236.41H288.638L289.128 238.84C289.515 237.94 290.001 237.263 290.588 236.81C291.175 236.35 291.911 236.12 292.798 236.12C293.138 236.12 293.438 236.147 293.698 236.2C293.965 236.253 294.218 236.323 294.458 236.41L293.668 238.63C293.461 238.577 293.265 238.537 293.078 238.51C292.891 238.477 292.681 238.46 292.448 238.46C291.715 238.46 291.075 238.747 290.528 239.32C289.988 239.887 289.568 240.657 289.268 241.63V245.17H291.378V247H285.138ZM292.228 240.54V237.73L292.588 236.41H294.458L293.988 240.54H292.228ZM301.23 236.11C302.284 236.11 303.177 236.34 303.91 236.8C304.644 237.26 305.2 237.91 305.58 238.75C305.967 239.583 306.16 240.56 306.16 241.68C306.16 242.827 305.967 243.82 305.58 244.66C305.194 245.5 304.634 246.15 303.9 246.61C303.167 247.07 302.274 247.3 301.22 247.3C300.174 247.3 299.28 247.077 298.54 246.63C297.807 246.177 297.247 245.533 296.86 244.7C296.474 243.86 296.28 242.86 296.28 241.7C296.28 240.593 296.474 239.62 296.86 238.78C297.247 237.94 297.81 237.287 298.55 236.82C299.29 236.347 300.184 236.11 301.23 236.11ZM301.23 238.1C300.49 238.1 299.937 238.39 299.57 238.97C299.21 239.55 299.03 240.46 299.03 241.7C299.03 242.953 299.21 243.87 299.57 244.45C299.93 245.023 300.48 245.31 301.22 245.31C301.96 245.31 302.51 245.023 302.87 244.45C303.23 243.87 303.41 242.947 303.41 241.68C303.41 240.447 303.23 239.543 302.87 238.97C302.51 238.39 301.964 238.1 301.23 238.1ZM317.223 247H314.123L313.053 239.65L311.913 247H308.873L307.183 236.41H309.663L310.583 245.36L311.893 237.75H314.323L315.523 245.36L316.463 236.41H318.843L317.223 247ZM34.06 274.21C34.06 274.617 34.12 274.913 34.24 275.1C34.36 275.28 34.5533 275.417 34.82 275.51L34.25 277.28C33.6833 277.22 33.2 277.08 32.8 276.86C32.4067 276.633 32.1033 276.297 31.89 275.85C31.49 276.337 30.9833 276.7 30.37 276.94C29.7633 277.18 29.1267 277.3 28.46 277.3C27.38 277.3 26.5233 276.993 25.89 276.38C25.2567 275.767 24.94 274.97 24.94 273.99C24.94 272.863 25.38 271.997 26.26 271.39C27.1467 270.777 28.4 270.47 30.02 270.47H31.5V269.9C31.5 269.273 31.3067 268.82 30.92 268.54C30.5333 268.253 29.9767 268.11 29.25 268.11C28.91 268.11 28.4833 268.157 27.97 268.25C27.4633 268.337 26.94 268.473 26.4 268.66L25.77 266.85C26.4433 266.597 27.12 266.41 27.8 266.29C28.4867 266.17 29.11 266.11 29.67 266.11C31.1567 266.11 32.26 266.427 32.98 267.06C33.7 267.687 34.06 268.577 34.06 269.73V274.21ZM29.32 275.39C29.72 275.39 30.1233 275.277 30.53 275.05C30.9433 274.823 31.2667 274.507 31.5 274.1V272.04H30.46C29.48 272.04 28.77 272.197 28.33 272.51C27.8967 272.823 27.68 273.267 27.68 273.84C27.68 274.333 27.82 274.717 28.1 274.99C28.38 275.257 28.7867 275.39 29.32 275.39ZM54.5244 275.18C54.991 275.18 55.4277 275.093 55.8344 274.92C56.2477 274.747 56.6444 274.527 57.0244 274.26L58.2244 275.95C57.7577 276.343 57.1944 276.667 56.5344 276.92C55.8744 277.173 55.1677 277.3 54.4144 277.3C53.3077 277.3 52.3577 277.07 51.5644 276.61C50.7777 276.143 50.171 275.497 49.7444 274.67C49.3244 273.837 49.1144 272.87 49.1144 271.77C49.1144 270.683 49.3277 269.713 49.7544 268.86C50.1877 268 50.801 267.327 51.5944 266.84C52.3944 266.353 53.3477 266.11 54.4544 266.11C55.2144 266.11 55.901 266.22 56.5144 266.44C57.1344 266.653 57.701 266.973 58.2144 267.4L57.0444 269.02C56.651 268.747 56.2444 268.54 55.8244 268.4C55.411 268.253 54.981 268.18 54.5344 268.18C53.7544 268.18 53.1177 268.463 52.6244 269.03C52.1377 269.59 51.8944 270.503 51.8944 271.77C51.8944 272.603 52.0077 273.27 52.2344 273.77C52.4677 274.27 52.781 274.63 53.1744 274.85C53.5744 275.07 54.0244 275.18 54.5244 275.18ZM65.3866 266.11C66.4399 266.11 67.3332 266.34 68.0666 266.8C68.7999 267.26 69.3566 267.91 69.7366 268.75C70.1232 269.583 70.3166 270.56 70.3166 271.68C70.3166 272.827 70.1232 273.82 69.7366 274.66C69.3499 275.5 68.7899 276.15 68.0566 276.61C67.3232 277.07 66.4299 277.3 65.3766 277.3C64.3299 277.3 63.4366 277.077 62.6966 276.63C61.9632 276.177 61.4032 275.533 61.0166 274.7C60.6299 273.86 60.4366 272.86 60.4366 271.7C60.4366 270.593 60.6299 269.62 61.0166 268.78C61.4032 267.94 61.9666 267.287 62.7066 266.82C63.4466 266.347 64.3399 266.11 65.3866 266.11ZM65.3866 268.1C64.6466 268.1 64.0932 268.39 63.7266 268.97C63.3666 269.55 63.1866 270.46 63.1866 271.7C63.1866 272.953 63.3666 273.87 63.7266 274.45C64.0866 275.023 64.6366 275.31 65.3766 275.31C66.1166 275.31 66.6666 275.023 67.0266 274.45C67.3866 273.87 67.5666 272.947 67.5666 271.68C67.5666 270.447 67.3866 269.543 67.0266 268.97C66.6666 268.39 66.1199 268.1 65.3866 268.1ZM80.3088 266.11C80.7621 266.11 81.1488 266.207 81.4688 266.4C81.7888 266.587 82.0354 266.903 82.2088 267.35C82.3821 267.79 82.4688 268.39 82.4688 269.15V277H80.1688V269.48C80.1688 269 80.1288 268.66 80.0488 268.46C79.9754 268.26 79.8054 268.16 79.5388 268.16C79.3188 268.16 79.0954 268.227 78.8688 268.36C78.6488 268.487 78.4188 268.717 78.1788 269.05V277H76.1888V269.48C76.1888 269 76.1488 268.66 76.0688 268.46C75.9954 268.26 75.8254 268.16 75.5588 268.16C75.3321 268.16 75.1088 268.227 74.8888 268.36C74.6688 268.487 74.4388 268.717 74.1988 269.05V277H71.8688V266.41H73.8388L74.0088 267.51C74.3221 267.07 74.6521 266.727 74.9988 266.48C75.3454 266.233 75.7621 266.11 76.2488 266.11C76.6488 266.11 77.0021 266.21 77.3088 266.41C77.6221 266.603 77.8454 266.937 77.9788 267.41C78.2854 267.023 78.6288 266.71 79.0088 266.47C79.3888 266.23 79.8221 266.11 80.3088 266.11ZM92.1009 266.11C92.5543 266.11 92.9409 266.207 93.2609 266.4C93.5809 266.587 93.8276 266.903 94.0009 267.35C94.1743 267.79 94.2609 268.39 94.2609 269.15V277H91.9609V269.48C91.9609 269 91.9209 268.66 91.8409 268.46C91.7676 268.26 91.5976 268.16 91.3309 268.16C91.1109 268.16 90.8876 268.227 90.6609 268.36C90.4409 268.487 90.2109 268.717 89.9709 269.05V277H87.9809V269.48C87.9809 269 87.9409 268.66 87.8609 268.46C87.7876 268.26 87.6176 268.16 87.3509 268.16C87.1243 268.16 86.9009 268.227 86.6809 268.36C86.4609 268.487 86.2309 268.717 85.9909 269.05V277H83.6609V266.41H85.6309L85.8009 267.51C86.1143 267.07 86.4443 266.727 86.7909 266.48C87.1376 266.233 87.5543 266.11 88.0409 266.11C88.4409 266.11 88.7943 266.21 89.1009 266.41C89.4143 266.603 89.6376 266.937 89.7709 267.41C90.0776 267.023 90.4209 266.71 90.8009 266.47C91.1809 266.23 91.6143 266.11 92.1009 266.11ZM99.0031 266.41V273.75C99.0031 274.323 99.1165 274.727 99.3431 274.96C99.5698 275.193 99.8998 275.31 100.333 275.31C100.746 275.31 101.15 275.187 101.543 274.94C101.936 274.687 102.256 274.367 102.503 273.98V266.41H105.143V277H102.843L102.703 275.7C102.323 276.22 101.836 276.617 101.243 276.89C100.65 277.163 100.036 277.3 99.4031 277.3C98.3831 277.3 97.6198 277.013 97.1131 276.44C96.6131 275.86 96.3631 275.07 96.3631 274.07V266.41H99.0031ZM108.155 277V266.41H110.455L110.645 267.72C111.099 267.187 111.609 266.787 112.175 266.52C112.742 266.247 113.352 266.11 114.005 266.11C114.959 266.11 115.685 266.387 116.185 266.94C116.685 267.487 116.935 268.257 116.935 269.25V277H114.295V270.28C114.295 269.747 114.262 269.32 114.195 269C114.129 268.673 114.002 268.44 113.815 268.3C113.629 268.153 113.359 268.08 113.005 268.08C112.719 268.08 112.442 268.143 112.175 268.27C111.915 268.397 111.669 268.567 111.435 268.78C111.209 268.993 110.995 269.23 110.795 269.49V277H108.155ZM126.038 266.41V275.13H128.828V277H120.298V275.13H123.398V268.28H120.398V266.41H126.038ZM124.328 261.07C124.814 261.07 125.208 261.22 125.508 261.52C125.814 261.82 125.968 262.193 125.968 262.64C125.968 263.087 125.814 263.463 125.508 263.77C125.208 264.07 124.814 264.22 124.328 264.22C123.841 264.22 123.444 264.07 123.138 263.77C122.831 263.463 122.678 263.087 122.678 262.64C122.678 262.193 122.831 261.82 123.138 261.52C123.444 261.22 123.841 261.07 124.328 261.07ZM140.88 276.41C140.486 276.67 140.01 276.883 139.45 277.05C138.89 277.217 138.283 277.3 137.63 277.3C136.336 277.3 135.363 276.967 134.71 276.3C134.056 275.627 133.73 274.733 133.73 273.62V268.28H131.43V266.41H133.73V264.08L136.37 263.76V266.41H139.87L139.6 268.28H136.37V273.61C136.37 274.157 136.503 274.557 136.77 274.81C137.036 275.063 137.466 275.19 138.06 275.19C138.44 275.19 138.786 275.147 139.1 275.06C139.42 274.967 139.71 274.85 139.97 274.71L140.88 276.41ZM153.122 266.41L149.532 277.02C149.239 277.887 148.859 278.63 148.392 279.25C147.925 279.87 147.335 280.36 146.622 280.72C145.915 281.087 145.049 281.303 144.022 281.37L143.692 279.46C144.405 279.36 144.975 279.21 145.402 279.01C145.829 278.81 146.169 278.547 146.422 278.22C146.682 277.893 146.905 277.487 147.092 277H146.192L142.722 266.41H145.512L147.912 275.24L150.412 266.41H153.122Z" fill="#895674"/>
<path d="M76.8748 83.3076C52.1919 59.6527 43.4644 81.4371 42.2238 98.1753C42.0488 100.536 44.3134 102.248 46.4656 101.262C47.8838 100.612 49.1405 99.8946 50.2936 99.1695C53.3471 97.2496 79.4789 85.8032 76.8748 83.3076Z" fill="white"/>
<path d="M148.402 83.8155C173.078 56.7986 181.71 81.983 182.862 101.031C183.012 103.509 180.599 105.259 178.41 104.088C177.401 103.548 176.475 102.97 175.61 102.379C172.419 100.201 145.796 86.6679 148.402 83.8155Z" fill="#DDC4FF"/>
<path d="M44.4219 108.145C39.9176 87.1321 44.5928 51.2458 79.4171 86.8708" stroke="#895674" stroke-width="4.85566"/>
<path d="M180.647 108.549C185.151 87.5366 180.476 51.6503 145.652 87.2753" stroke="#895674" stroke-width="4.85566"/>
<path d="M112.876 221C88.1934 221 64.5214 213.582 47.068 200.378C29.6146 187.174 19.8093 169.266 19.8093 150.593C19.8093 131.92 29.6146 114.011 47.068 100.808C64.5214 87.6037 88.1934 80.1858 112.876 80.1858V150.593L112.876 221Z" fill="#DDC4FF"/>
<path d="M112.067 221C136.75 221 160.422 213.582 177.875 200.378C195.329 187.174 205.134 169.266 205.134 150.593C205.134 131.92 195.329 114.011 177.875 100.808C160.422 87.6037 136.75 80.1858 112.067 80.1858V150.593L112.067 221Z" fill="white"/>
<rect x="44.244" y="134.262" width="15.3967" height="5.61349" rx="2.80675" transform="rotate(20 44.244 134.262)" fill="#895674" stroke="#895674" stroke-width="0.404639"/>
<rect x="40.6519" y="148.64" width="15.3967" height="5.61349" rx="2.80675" transform="rotate(-0.999999 40.6519 148.64)" fill="#895674" stroke="#895674" stroke-width="0.404639"/>
<rect x="-0.120921" y="0.259315" width="15.3967" height="5.61349" rx="2.80675" transform="matrix(-0.939693 0.34202 0.34202 0.939693 178.386 134.464)" fill="#895674" stroke="#895674" stroke-width="0.404639"/>
<rect x="42.2299" y="164.041" width="15.3967" height="5.61349" rx="2.80675" transform="rotate(-18.5 42.2299 164.041)" fill="#895674" stroke="#895674" stroke-width="0.404639"/>
<rect x="-0.256061" y="0.127667" width="15.3967" height="5.61349" rx="2.80675" transform="matrix(-0.948324 -0.317305 -0.317305 0.948324 180.297 163.625)" fill="#895674" stroke="#895674" stroke-width="0.404639"/>
<rect x="-0.20582" y="0.198758" width="15.3967" height="5.61349" rx="2.80675" transform="matrix(-0.999848 -0.0174524 -0.0174524 0.999848 181.784 148.842)" fill="#895674" stroke="#895674" stroke-width="0.404639"/>
<path d="M77 140.202C79.4582 140.202 81.4512 142.195 81.4512 144.653C81.4512 147.112 79.4582 149.104 77 149.104C74.5418 149.104 72.5488 147.112 72.5488 144.653C72.5488 142.195 74.5418 140.202 77 140.202Z" fill="#895674" stroke="#895674" stroke-width="0.404639"/>
<path d="M147.653 140.202C150.112 140.202 152.104 142.195 152.104 144.653C152.104 147.112 150.112 149.104 147.653 149.104C145.195 149.104 143.202 147.112 143.202 144.653C143.202 142.195 145.195 140.202 147.653 140.202Z" fill="#895674" stroke="#895674" stroke-width="0.404639"/>
<path d="M106.925 156.914C106.03 155.417 107.126 153.52 108.869 153.546L116.706 153.667C118.403 153.693 119.447 155.535 118.599 157.005L114.786 163.609C113.937 165.08 111.82 165.096 110.948 163.639L106.925 156.914Z" fill="#895674" stroke="#895674" stroke-width="0.404639"/>
<path d="M84.9563 173.454C92.7793 181.257 109.235 190.119 112.472 163.137" stroke="#895674" stroke-width="4.85566"/>
<circle cx="84.5514" cy="173.253" r="2.22551" fill="#895674" stroke="#895674" stroke-width="0.404639"/>
<circle cx="112.471" cy="162.732" r="2.22551" fill="black" stroke="#895674" stroke-width="0.404639"/>
<path d="M139.987 173.454C132.164 181.257 115.708 190.119 112.471 163.137" stroke="#895674" stroke-width="4.85566"/>
<circle cx="2.42783" cy="2.42783" r="2.22551" transform="matrix(-1 0 0 1 142.819 170.825)" fill="#895674" stroke="#895674" stroke-width="0.404639"/>
<circle cx="2.42783" cy="2.42783" r="2.22551" transform="matrix(-1 0 0 1 114.899 160.304)" fill="#895674" stroke="#895674" stroke-width="0.404639"/>
<path d="M112.471 83.2209C137.457 83.2209 159.964 90.9191 176.158 103.224C192.35 115.527 202.099 132.303 202.099 150.593C202.099 168.883 192.35 185.659 176.158 197.962C159.964 210.267 137.457 217.965 112.471 217.965C87.4862 217.965 64.98 210.267 48.7859 197.962C32.5939 185.659 22.8445 168.883 22.8445 150.593C22.8445 132.303 32.5939 115.527 48.7859 103.224C64.98 90.9193 87.4861 83.221 112.471 83.2209Z" stroke="#895674" stroke-width="6.06958"/>
<path d="M272.5 149C261.337 165.785 247.887 180.575 238 174C228.113 167.424 238.837 142.285 250 125.5C276.5 95.5 259.713 107.392 280.5 117.5C302.5 119 283.663 132.215 272.5 149Z" fill="white"/>
<path d="M283 131.5C283 140.06 276.68 150.123 269.5 150.123C262.32 150.123 253.5 142.123 251.5 138.623C248 128 253.32 116 260.5 116C271 134 288.5 128.5 283 131.5Z" fill="#DDC4FF"/>
<circle cx="289.961" cy="95.5767" r="24" transform="rotate(-14.1803 289.961 95.5767)" fill="white" stroke="#895674" stroke-width="4"/>
<path d="M267.187 105.457C267.187 105.457 222.196 157.487 236.552 171.989C252.479 188.078 291.962 119.826 291.962 119.826" stroke="#895674" stroke-width="4"/>
<path d="M259.964 113.47C259.964 113.47 263.143 122.999 269.053 127.006C274.901 130.97 284.152 131.778 284.152 131.778" stroke="#895674" stroke-width="4"/>
<path d="M248.201 130.187C248.201 130.187 251.38 139.716 257.29 143.722C263.138 147.686 272.389 148.494 272.389 148.494" stroke="#895674" stroke-width="4"/>
<path d="M273.308 139.997C272.1 141.755 271.258 143.275 269.809 142.279C268.359 141.283 269.475 139.952 270.683 138.194C271.891 136.436 272.733 134.917 274.182 135.913C275.632 136.909 274.516 138.24 273.308 139.997Z" fill="#895674"/>
<path d="M270.304 82.6856C270.304 82.6856 275.556 95.5209 284.933 101.464C296.666 108.899 312.553 106.376 312.553 106.376" stroke="#895674" stroke-width="4"/>
<path d="M236.5 173.5C236.5 173.5 211.664 231.925 257.501 195C311.5 151.5 272.5 219 272.5 219" stroke="#895674" stroke-width="4"/>
</svg>
