<svg width="810" height="762" viewBox="0 0 810 762" fill="none" xmlns="http://www.w3.org/2000/svg">
<path d="M651.428 550.643C651.428 766.628 476.337 941.718 260.352 941.718C44.3672 941.718 -130.723 766.628 -130.723 550.643C-130.723 334.658 44.3672 159.568 260.352 159.568C476.337 159.568 651.428 334.658 651.428 550.643Z" fill="#5F4756"/>
<path d="M256.41 211.783C444.729 211.783 597.385 364.286 597.385 552.4C597.385 740.515 444.729 893.018 256.41 893.019C68.0904 893.019 -84.5668 740.515 -84.5668 552.4C-84.5666 364.286 68.0906 211.783 256.41 211.783Z" stroke="black" stroke-width="7"/>
<path d="M256.774 300.687C396.196 300.687 509.212 413.551 509.212 552.766C509.212 691.981 396.196 804.845 256.774 804.845C117.352 804.845 4.33672 691.981 4.33667 552.766C4.33667 413.551 117.352 300.687 256.774 300.687Z" stroke="black" stroke-width="7"/>
<path d="M-32.0527 288.568C8.46355 244.272 58.6333 209.899 114.57 188.11C170.507 166.321 230.709 157.702 290.512 162.921L256.516 552.515L-32.0527 288.568Z" fill="#D9D9D9" fill-opacity="0.38"/>
<path d="M555.195 805.09C516.441 850.936 467.653 887.244 412.611 911.203C357.569 935.162 297.75 946.128 237.788 943.251L256.529 552.625L555.195 805.09Z" fill="#D9D9D9" fill-opacity="0.38"/>
<path d="M427.399 552.407C427.399 646.641 351.008 723.032 256.774 723.032C162.541 723.032 86.1493 646.641 86.1493 552.407C86.1493 458.174 162.541 381.782 256.774 381.782C351.008 381.782 427.399 458.174 427.399 552.407Z" fill="#612C4B"/>
<circle cx="256.416" cy="552.766" r="84.954" fill="#5CA573"/>
<ellipse cx="256.403" cy="552.753" rx="26.8842" ry="24.0165" fill="#FFF7F7"/>
</svg>
