<svg width="203" height="165" viewBox="0 0 203 165" fill="none" xmlns="http://www.w3.org/2000/svg">
<path d="M62.4288 15.6953C35.5258 -10.0041 26.2282 14.1775 25.0579 32.2883C24.9096 34.583 27.1117 36.2389 29.2161 35.3122C30.9324 34.5564 32.4311 33.7055 33.7952 32.8448C37.0843 30.7693 65.241 18.3818 62.4288 15.6953Z" fill="#FFF6C4"/>
<path d="M139.554 16.1188C166.395 -13.3634 175.661 14.665 176.779 35.2701C176.907 37.6192 174.619 39.282 172.519 38.2225C171.12 37.5168 169.866 36.7388 168.711 35.9427C165.314 33.6 136.776 19.1705 139.554 16.1188Z" fill="#DDC4FF"/>
<path d="M62.4288 15.6953C35.5259 -10.0041 26.2282 14.1774 25.0579 32.2883C24.9096 34.5829 27.1117 36.2388 29.2161 35.3121C30.9324 34.5563 32.4312 33.7054 33.7953 32.8447C37.0843 30.7692 65.2411 18.3817 62.4288 15.6953Z" fill="#FFF6C4"/>
<path d="M139.554 16.1187C166.395 -13.3635 175.661 14.665 176.779 35.2701C176.907 37.6191 174.619 39.282 172.519 38.2224C171.12 37.5167 169.866 36.7387 168.712 35.9427C165.314 33.5999 136.776 19.1705 139.554 16.1187Z" fill="#DDC4FF"/>
<ellipse cx="101.365" cy="88.1833" rx="100.35" ry="75.9166" transform="rotate(-0.0924035 101.365 88.1833)" fill="white"/>
<path d="M92.5953 91.9295C92.1706 91.2645 92.6474 90.3926 93.4365 90.3913L108.906 90.3662C109.695 90.3649 110.174 91.2353 109.752 91.9017L102.037 104.069C101.645 104.687 100.743 104.689 100.349 104.072L92.5953 91.9295Z" fill="#895674"/>
<path d="M101.184 98.5687C101.184 98.5687 99.8459 116.319 91.6628 120.429C83.4798 124.538 71.1718 112.271 71.1718 112.271" stroke="#895674" stroke-width="2" stroke-linecap="round"/>
<path d="M100.572 98.955C100.572 98.955 101.629 116.02 110.775 120.398C119.922 124.777 131.24 112.173 131.24 112.173" stroke="#895674" stroke-width="2" stroke-linecap="round"/>
<path d="M123.727 86.9171L133.889 78.0084L144.161 88.2607" stroke="#895674" stroke-width="2"/>
<line x1="159.236" y1="80.9907" x2="173.11" y2="75.8689" stroke="#895674" stroke-width="2.5" stroke-linecap="round"/>
<line x1="1.25" y1="-1.25" x2="16.0386" y2="-1.25" transform="matrix(-0.939223 -0.343307 -0.343307 0.939223 40.9345 82.7861)" stroke="#895674" stroke-width="2.5" stroke-linecap="round"/>
<line x1="159.764" y1="91.7671" x2="174.552" y2="91.7722" stroke="#895674" stroke-width="2.5" stroke-linecap="round"/>
<line x1="1.25" y1="-1.25" x2="16.0386" y2="-1.25" transform="matrix(-0.999994 0.00357209 0.00357209 0.999994 42.0126 93.2047)" stroke="#895674" stroke-width="2.5" stroke-linecap="round"/>
<line x1="157.35" y1="103.091" x2="171.552" y2="107.215" stroke="#895674" stroke-width="2.5" stroke-linecap="round"/>
<line x1="1.25" y1="-1.25" x2="16.0386" y2="-1.25" transform="matrix(-0.959424 0.281968 0.281968 0.959424 44.0673 104.123)" stroke="#895674" stroke-width="2.5" stroke-linecap="round"/>
<path d="M101.045 12.6972C128.646 12.6527 153.591 21.0802 171.611 34.6713C189.63 48.2617 200.658 66.9486 200.692 87.4877C200.725 108.027 189.757 126.749 171.782 140.398C153.806 154.047 128.888 162.556 101.287 162.6C73.6863 162.645 48.7414 154.216 30.7214 140.625C12.7022 127.035 1.67418 108.348 1.64106 87.8088C1.60803 67.2696 12.5757 48.5472 30.5509 34.8988C48.527 21.2497 73.4447 12.7417 101.045 12.6972Z" stroke="#895674" stroke-width="3"/>
<path d="M26.6907 37.0511C26.6907 37.0511 25.1623 14.2665 34.1385 5.84429C42.3402 -1.85115 64.6907 18.5512 64.6907 18.5512" stroke="#895674" stroke-width="3"/>
<path d="M175.726 38.0351C175.726 38.0351 177.387 13.1653 168.384 4.77209C160.157 -2.89686 137.515 17.2396 137.515 17.2396" stroke="#895674" stroke-width="3"/>
<circle cx="62.9317" cy="82.2493" r="5.46082" transform="rotate(-0.0924035 62.9317 82.2493)" fill="#895674"/>
<circle cx="62.9317" cy="82.2492" r="5.46082" transform="rotate(-0.0924035 62.9317 82.2492)" fill="#895674"/>
</svg>
