<svg width="203" height="196" viewBox="0 0 203 196" fill="none" xmlns="http://www.w3.org/2000/svg">
<path d="M62.4288 15.6953C35.5258 -10.0041 26.2282 14.1775 25.0579 32.2883C24.9096 34.5829 27.1117 36.2389 29.2161 35.3121C30.9324 34.5563 32.4311 33.7055 33.7952 32.8447C37.0843 30.7693 65.241 18.3817 62.4288 15.6953Z" fill="#FFF6C4"/>
<path d="M139.554 16.1188C166.395 -13.3634 175.661 14.665 176.779 35.2701C176.907 37.6192 174.619 39.282 172.519 38.2225C171.12 37.5168 169.866 36.7388 168.712 35.9427C165.314 33.6 136.776 19.1705 139.554 16.1188Z" fill="#DDC4FF"/>
<path d="M62.4288 15.6953C35.5258 -10.0041 26.2282 14.1774 25.0579 32.2883C24.9096 34.5829 27.1117 36.2388 29.2161 35.3121C30.9324 34.5563 32.4311 33.7055 33.7952 32.8447C37.0843 30.7692 65.241 18.3817 62.4288 15.6953Z" fill="#FFC4FB"/>
<path d="M139.554 16.1188C166.395 -13.3634 175.661 14.665 176.779 35.2701C176.907 37.6192 174.619 39.282 172.519 38.2224C171.12 37.5167 169.866 36.7388 168.712 35.9427C165.314 33.6 136.776 19.1705 139.554 16.1188Z" fill="white"/>
<path d="M101.487 164.1C74.8727 164.143 49.3355 156.186 30.4934 141.979C11.6512 127.772 1.04761 108.479 1.01513 88.3451C0.982663 68.2108 11.524 48.8841 30.3202 34.6166C49.1164 20.3491 74.6278 12.3097 101.242 12.2667L101.365 88.1832L101.487 164.1Z" fill="white"/>
<path d="M100.614 164.101C127.228 164.058 152.74 156.019 171.536 141.751C190.332 127.484 200.874 108.157 200.841 88.0227C200.809 67.8884 190.205 48.5958 171.363 34.389C152.521 20.1822 126.984 12.2251 100.369 12.268L100.492 88.1845L100.614 164.101Z" fill="#FFE3E8"/>
<path d="M92.5953 91.9296C92.1706 91.2645 92.6474 90.3926 93.4365 90.3913L108.906 90.3662C109.695 90.365 110.174 91.2353 109.752 91.9018L102.037 104.069C101.645 104.687 100.743 104.689 100.349 104.072L92.5953 91.9296Z" fill="#895674"/>
<path d="M101.184 98.5687C101.184 98.5687 99.8459 116.319 91.6628 120.428C83.4798 124.538 71.1718 112.271 71.1718 112.271" stroke="#895674" stroke-width="2" stroke-linecap="round"/>
<path d="M100.572 98.955C100.572 98.955 101.629 116.02 110.775 120.398C119.922 124.777 131.24 112.173 131.24 112.173" stroke="#895674" stroke-width="2" stroke-linecap="round"/>
<line x1="159.236" y1="80.9908" x2="173.11" y2="75.8689" stroke="#895674" stroke-width="2.5" stroke-linecap="round"/>
<line x1="1.25" y1="-1.25" x2="16.0386" y2="-1.25" transform="matrix(-0.939223 -0.343307 -0.343307 0.939223 40.9346 82.786)" stroke="#895674" stroke-width="2.5" stroke-linecap="round"/>
<line x1="159.764" y1="91.7671" x2="174.552" y2="91.7722" stroke="#895674" stroke-width="2.5" stroke-linecap="round"/>
<line x1="1.25" y1="-1.25" x2="16.0386" y2="-1.25" transform="matrix(-0.999994 0.00357209 0.00357209 0.999994 42.0126 93.2047)" stroke="#895674" stroke-width="2.5" stroke-linecap="round"/>
<line x1="157.35" y1="103.091" x2="171.552" y2="107.215" stroke="#895674" stroke-width="2.5" stroke-linecap="round"/>
<line x1="1.25" y1="-1.25" x2="16.0386" y2="-1.25" transform="matrix(-0.959424 0.281968 0.281968 0.959424 44.0673 104.123)" stroke="#895674" stroke-width="2.5" stroke-linecap="round"/>
<path d="M101.046 12.6972C128.646 12.6527 153.591 21.0802 171.611 34.6713C189.63 48.2617 200.658 66.9486 200.692 87.4877C200.725 108.027 189.757 126.749 171.782 140.398C153.806 154.047 128.888 162.556 101.287 162.6C73.6864 162.645 48.7415 154.216 30.7215 140.625C12.7023 127.035 1.67424 108.348 1.64112 87.8088C1.6081 67.2696 12.5758 48.5472 30.5509 34.8988C48.527 21.2497 73.4448 12.7417 101.046 12.6972Z" stroke="#895674" stroke-width="3"/>
<path d="M26.6907 37.0512C26.6907 37.0512 25.1623 14.2665 34.1385 5.8443C42.3402 -1.85113 64.6907 18.5512 64.6907 18.5512" stroke="#895674" stroke-width="3"/>
<path d="M175.726 38.0351C175.726 38.0351 177.387 13.1653 168.384 4.77207C160.157 -2.89687 137.515 17.2395 137.515 17.2395" stroke="#895674" stroke-width="3"/>
<circle cx="62.9317" cy="82.2493" r="5.46082" transform="rotate(-0.0924035 62.9317 82.2493)" fill="#895674"/>
<circle cx="136.47" cy="82.4696" r="5.46082" transform="rotate(-0.0924035 136.47 82.4696)" fill="#895674"/>
<path fill-rule="evenodd" clip-rule="evenodd" d="M84.0524 166.694C88.0521 166.694 91.6864 165.305 94.5771 163.677C93.8265 167.789 93.889 171.484 93.948 174.973L93.9607 175.744C94.0473 181.289 93.9829 186.425 90.8464 192.788C90.3026 193.891 90.7561 195.226 91.8594 195.77C92.9628 196.314 94.2981 195.86 94.8419 194.757C98.4684 187.4 98.5036 181.368 98.4147 175.675L98.4041 175.018C98.3295 170.477 98.2588 166.168 99.7472 161.179C102.484 165.573 103.753 169.89 105.026 174.244L105.06 174.36C106.541 179.421 108.078 184.677 112.282 189.393C113.1 190.311 114.508 190.392 115.426 189.574C116.345 188.755 116.426 187.347 115.607 186.429C112.129 182.527 110.818 178.177 109.302 172.993L109.263 172.862C108.535 170.373 107.761 167.725 106.645 164.982C108.994 165.983 111.669 166.694 114.531 166.694C119.16 166.694 123.461 165.795 126.687 164.241C129.755 162.764 132.583 160.293 132.583 156.847C132.583 153.4 129.755 150.929 126.687 149.452C123.461 147.899 119.16 147 114.531 147C107.836 147 102.165 150.89 99.2915 153.283C96.4179 150.89 90.7469 147 84.0524 147C79.423 147 75.1224 147.899 71.8961 149.452C68.8281 150.929 66 153.4 66 156.847C66 160.293 68.8281 162.764 71.8961 164.241C75.1224 165.795 79.423 166.694 84.0524 166.694ZM73.8286 153.466C71.1689 154.746 70.4545 156.085 70.4545 156.847C70.4545 157.608 71.1689 158.947 73.8286 160.228C76.3299 161.432 79.9419 162.239 84.0524 162.239C89.2676 162.239 93.9755 159.052 96.5075 156.932L96.5578 156.804C94.0383 154.684 89.3024 151.455 84.0524 151.455C79.9419 151.455 76.3299 152.261 73.8286 153.466ZM102.529 157.304C102.396 157.111 102.26 156.918 102.121 156.724C104.663 154.604 109.346 151.455 114.531 151.455C118.641 151.455 122.253 152.261 124.754 153.466C127.414 154.746 128.128 156.085 128.128 156.847C128.128 157.608 127.414 158.947 124.754 160.228C122.253 161.432 118.641 162.239 114.531 162.239C109.612 162.239 105.146 159.405 102.529 157.304Z" fill="#FFA6A7"/>
<path d="M34.0203 51.2373C34.2453 51.2003 34.4706 51.1524 34.6956 51.0932C38.5418 50.0813 40.845 46.164 39.8399 42.3437C38.8348 38.5234 34.9021 36.2467 31.0559 37.2586C30.6826 37.3568 30.3237 37.4825 29.981 37.6327C30.769 34.9613 30.0097 31.9714 27.8078 30.0773C24.8293 27.5149 20.339 27.9278 17.7785 30.9996C16.4135 32.6372 15.8724 34.6999 16.1161 36.6573C15.8547 36.5207 15.5825 36.3984 15.3 36.2916C11.5593 34.8776 7.44718 36.7279 6.11525 40.4243C4.78332 44.1207 6.736 48.2636 10.4767 49.6776C10.6786 49.7539 10.8816 49.8207 11.0851 49.8783C10.9362 50.0285 10.7924 50.1866 10.6542 50.3524C8.09369 53.4242 8.43258 57.9916 11.4111 60.554C14.3897 63.1164 18.88 62.7034 21.4405 59.6316C21.6679 59.3588 21.8724 59.0742 22.0542 58.7803C22.8639 60.3426 24.2371 61.6295 26.0135 62.301C29.7542 63.715 33.8663 61.8648 35.1983 58.1683C36.0684 55.7534 35.5367 53.1479 34.0203 51.2373Z" fill="#F09AA5"/>
<g style="mix-blend-mode:multiply">
<circle cx="23.0509" cy="47.1784" r="5.39568" transform="rotate(99.9151 23.0509 47.1784)" fill="#ED653B" fill-opacity="0.5"/>
</g>
</svg>
