<svg fill="#ffffff" viewBox="0 0 256 256" id="Flat" xmlns="http://www.w3.org/2000/svg" stroke="#ffffff"><g id="SVGRepo_bgCarrier" stroke-width="0"></g><g id="SVGRepo_tracerCarrier" stroke-linecap="round" stroke-linejoin="round"></g><g id="SVGRepo_iconCarrier"> <path d="M72,40a8.00039,8.00039,0,0,1,8-8h96a8,8,0,0,1,0,16H80A8.00039,8.00039,0,0,1,72,40Zm159.39062,92.93848A8,8,0,0,0,224,128H184V72a8.00039,8.00039,0,0,0-8-8H80a8.00039,8.00039,0,0,0-8,8v56H32a8.00065,8.00065,0,0,0-5.65723,13.65723l96,96a8.003,8.003,0,0,0,11.31446,0l96-96A8.002,8.002,0,0,0,231.39062,132.93848Z"></path> </g></svg>