<svg width="1423" height="960" viewBox="0 0 1423 960" fill="none" xmlns="http://www.w3.org/2000/svg">
<rect x="165.786" y="123" width="96" height="19" rx="9.5" transform="rotate(51.0982 165.786 123)" fill="white"/>
<circle cx="122.5" cy="119.5" r="49.5" fill="white"/>
<rect x="115" y="119.618" width="40.326" height="12" rx="6" transform="rotate(-35.851 115 119.618)" fill="#5F4756"/>
<rect x="49" y="142.218" width="53" height="54" rx="20" transform="rotate(-33.4563 49 142.218)" fill="white"/>
<path d="M166 138C750.8 854.799 1080 997 1057.5 970" stroke="white" stroke-width="5"/>
<rect width="96" height="19" rx="9.5" transform="matrix(0.480558 0.876963 0.876963 -0.480558 656.119 112.168)" fill="white"/>
<circle cx="49.5" cy="49.5" r="49.5" transform="matrix(-0.380689 0.924703 0.924703 0.380689 642.432 6.19189)" fill="white"/>
<rect width="40.326" height="12" rx="6" transform="matrix(-0.850145 0.526549 0.526549 0.850145 672.325 63.9187)" fill="#5F4756"/>
<rect width="53" height="54" rx="20" transform="matrix(-0.827401 0.561612 0.561612 0.827401 718.35 11.4919)" fill="white"/>
<path d="M669.908 118.076C1110.11 931.721 1119.9 1010.58 1103.5 979.499" stroke="white" stroke-width="5"/>
</svg>
