<svg width="1029" height="960" viewBox="0 0 1029 960" fill="none" xmlns="http://www.w3.org/2000/svg">
<path d="M1321.53 482.548C1321.53 783.819 1077.3 1028.05 776.031 1028.05C474.76 1028.05 230.531 783.819 230.531 482.548C230.531 181.277 474.76 -62.9521 776.031 -62.9521C1077.3 -62.9521 1321.53 181.277 1321.53 482.548Z" fill="#5F4756"/>
<path d="M770.531 8.5C1033.97 8.5 1247.53 221.84 1247.53 485C1247.53 748.16 1033.97 961.5 770.531 961.5C507.088 961.5 293.532 748.16 293.531 485C293.531 221.84 507.088 8.5 770.531 8.5Z" stroke="black" stroke-width="7"/>
<path d="M771.031 132.5C966.269 132.5 1124.53 290.548 1124.53 485.5C1124.53 680.452 966.269 838.5 771.031 838.5C575.794 838.5 417.532 680.452 417.531 485.5C417.531 290.548 575.794 132.5 771.031 132.5Z" stroke="black" stroke-width="7"/>
<path d="M368.173 117.138C424.688 55.3513 494.668 7.40448 572.693 -22.9882C650.717 -53.3808 734.691 -65.4032 818.109 -58.1241L770.689 485.311L368.173 117.138Z" fill="#D9D9D9" fill-opacity="0.38"/>
<path d="M1187.29 837.467C1133.23 901.416 1065.18 952.062 988.404 985.482C911.627 1018.9 828.187 1034.2 744.549 1030.18L770.689 485.311L1187.29 837.467Z" fill="#D9D9D9" fill-opacity="0.38"/>
<path d="M1009.03 485C1009.03 616.444 902.475 723 771.032 723C639.588 723 533.032 616.444 533.032 485C533.032 353.556 639.588 247 771.032 247C902.475 247 1009.03 353.556 1009.03 485Z" fill="#612C4B"/>
<circle cx="770.531" cy="485.5" r="118.5" fill="#F8C99E"/>
<ellipse cx="770.531" cy="485.5" rx="37.5" ry="33.5" fill="#FFF7F7"/>
</svg>
