<svg width="225" height="193" viewBox="0 0 225 193" fill="none" xmlns="http://www.w3.org/2000/svg">
<path d="M140.231 24.0847C162.797 -5.49576 175.752 16.9399 179.733 34.6467C180.237 36.8901 178.32 38.8692 176.097 38.282C174.284 37.8031 172.671 37.1964 171.189 36.5589C167.616 35.0218 137.872 27.1769 140.231 24.0847Z" fill="#FFF6C4"/>
<path d="M64.1149 36.5311C33.0048 11.5955 28.2232 40.726 30.332 61.2534C30.5724 63.5936 33.0913 64.8794 35.0007 63.5052C36.2724 62.59 37.3896 61.626 38.4058 60.6596C41.3964 57.8157 67.3352 39.1122 64.1149 36.5311Z" fill="#DDC4FF"/>
<path d="M124.794 176.765C151.09 172.657 175.074 160.814 191.47 143.843C207.866 126.872 215.331 106.161 212.223 86.2685C209.115 66.3754 195.689 48.9291 174.897 37.7675C154.106 26.6059 127.653 22.6433 101.358 26.7514L113.076 101.758L124.794 176.765Z" fill="white"/>
<path d="M125.656 176.63C99.3611 180.738 72.9081 176.776 52.1169 165.614C31.3256 154.453 17.8992 137.006 14.7914 117.113C11.6835 97.2202 19.1487 76.51 35.5447 59.5386C51.9408 42.5672 75.9246 30.7249 102.22 26.6168L113.938 101.624L125.656 176.63Z" fill="white"/>
<path d="M122.322 104.091C122.637 103.368 122.03 102.581 121.251 102.703L105.967 105.09C105.187 105.212 104.849 106.147 105.371 106.739L114.889 117.554C115.372 118.104 116.263 117.964 116.556 117.294L122.322 104.091Z" fill="#895674"/>
<path d="M114.873 111.989C114.873 111.989 118.964 129.313 127.687 132.096C136.411 134.879 146.656 120.843 146.656 120.843" stroke="#895674" stroke-width="2" stroke-linecap="round"/>
<path d="M115.538 112.274C115.538 112.274 117.155 129.296 108.804 135.047C100.452 140.798 87.3064 130.114 87.3064 130.114" stroke="#895674" stroke-width="2" stroke-linecap="round"/>
<path d="M90.7893 103.995L79.3618 96.7803L70.8148 108.509" stroke="#895674" stroke-width="2"/>
<line x1="1.25" y1="-1.25" x2="16.0386" y2="-1.25" transform="matrix(-0.980644 -0.195798 -0.195798 0.980644 55.7713 105.149)" stroke="#895674" stroke-width="2.5" stroke-linecap="round"/>
<line x1="172.41" y1="85.3032" x2="185.339" y2="78.1222" stroke="#895674" stroke-width="2.5" stroke-linecap="round"/>
<line x1="1.25" y1="-1.25" x2="16.0386" y2="-1.25" transform="matrix(-0.987711 0.156293 0.156293 0.987711 57.3797 115.445)" stroke="#895674" stroke-width="2.5" stroke-linecap="round"/>
<line x1="173.529" y1="96.0365" x2="188.145" y2="93.7824" stroke="#895674" stroke-width="2.5" stroke-linecap="round"/>
<line x1="1.25" y1="-1.25" x2="16.0386" y2="-1.25" transform="matrix(-0.905088 0.425223 0.425223 0.905088 61.7635 125.814)" stroke="#895674" stroke-width="2.5" stroke-linecap="round"/>
<line x1="173.559" y1="107.489" x2="188.224" y2="109.395" stroke="#895674" stroke-width="2.5" stroke-linecap="round"/>
<path d="M101.619 27.1459C74.3489 31.4063 51.0234 43.6209 35.3434 59.8559C19.6642 76.0901 11.6853 96.2682 14.8556 116.561C18.026 136.854 31.7794 153.637 51.663 164.315C71.5478 174.994 97.4875 179.513 124.758 175.253C152.028 170.992 175.353 158.777 191.033 142.542C206.712 126.307 214.691 106.129 211.521 85.8363C208.35 65.5433 194.597 48.7604 174.713 38.0822C154.829 27.4035 128.889 22.8855 101.619 27.1459Z" stroke="#895674" stroke-width="3"/>
<path d="M178.894 40.3201C178.894 40.3201 176.819 16.8619 166.639 9.94261C157.337 3.62038 138.394 26.8201 138.394 26.8201" stroke="#895674" stroke-width="3"/>
<path d="M32.3943 62.8204C32.3943 62.8204 27.8096 40.515 35.3939 30.8204C42.3237 21.9624 66.8938 37.8204 66.8938 37.8204" stroke="#895674" stroke-width="3"/>
<circle cx="5.46082" cy="5.46082" r="5.46082" transform="matrix(-0.988015 0.154357 0.154357 0.988015 154.666 83.665)" fill="#895674"/>
</svg>
