<svg width="360" height="306" viewBox="0 0 360 306" fill="none" xmlns="http://www.w3.org/2000/svg">
<rect x="2.5" y="2.5" width="355" height="301" rx="7.5" fill="#ECAFD2" stroke="#895674" stroke-width="5"/>
<path d="M98.8043 53V28.106H103.736V49.004H114.716L114.194 53H98.8043ZM130.002 33.938V49.634H135.024V53H119.67V49.634H125.25V37.304H119.85V33.938H130.002ZM126.924 24.326C127.8 24.326 128.508 24.596 129.048 25.136C129.6 25.676 129.876 26.348 129.876 27.152C129.876 27.956 129.6 28.634 129.048 29.186C128.508 29.726 127.8 29.996 126.924 29.996C126.048 29.996 125.334 29.726 124.782 29.186C124.23 28.634 123.954 27.956 123.954 27.152C123.954 26.348 124.23 25.676 124.782 25.136C125.334 24.596 126.048 24.326 126.924 24.326ZM147.52 50.03C148.636 50.03 149.53 49.838 150.202 49.454C150.886 49.058 151.228 48.506 151.228 47.798C151.228 47.33 151.114 46.934 150.886 46.61C150.67 46.286 150.238 45.986 149.59 45.71C148.942 45.422 147.97 45.104 146.674 44.756C145.45 44.444 144.376 44.06 143.452 43.604C142.54 43.136 141.826 42.536 141.31 41.804C140.806 41.072 140.554 40.148 140.554 39.032C140.554 37.916 140.866 36.938 141.49 36.098C142.114 35.246 143.014 34.586 144.19 34.118C145.378 33.638 146.806 33.398 148.474 33.398C150.106 33.398 151.534 33.614 152.758 34.046C153.982 34.466 155.032 34.994 155.908 35.63L153.964 38.528C153.196 38.036 152.362 37.64 151.462 37.34C150.574 37.028 149.614 36.872 148.582 36.872C147.466 36.872 146.65 37.034 146.134 37.358C145.63 37.682 145.378 38.132 145.378 38.708C145.378 39.116 145.504 39.464 145.756 39.752C146.02 40.028 146.488 40.298 147.16 40.562C147.844 40.814 148.816 41.12 150.076 41.48C151.312 41.816 152.386 42.212 153.298 42.668C154.222 43.124 154.936 43.73 155.44 44.486C155.944 45.242 156.196 46.232 156.196 47.456C156.196 48.836 155.794 49.976 154.99 50.876C154.186 51.776 153.124 52.448 151.804 52.892C150.496 53.324 149.074 53.54 147.538 53.54C145.738 53.54 144.166 53.282 142.822 52.766C141.478 52.25 140.338 51.584 139.402 50.768L141.868 47.996C142.612 48.584 143.458 49.07 144.406 49.454C145.366 49.838 146.404 50.03 147.52 50.03ZM177.944 51.938C177.236 52.406 176.378 52.79 175.37 53.09C174.362 53.39 173.27 53.54 172.094 53.54C169.766 53.54 168.014 52.94 166.838 51.74C165.662 50.528 165.074 48.92 165.074 46.916V37.304H160.934V33.938H165.074V29.744L169.826 29.168V33.938H176.126L175.64 37.304H169.826V46.898C169.826 47.882 170.066 48.602 170.546 49.058C171.026 49.514 171.8 49.742 172.868 49.742C173.552 49.742 174.176 49.664 174.74 49.508C175.316 49.34 175.838 49.13 176.306 48.878L177.944 51.938ZM186.768 44.918C186.864 46.106 187.134 47.072 187.578 47.816C188.034 48.56 188.616 49.106 189.324 49.454C190.032 49.802 190.818 49.976 191.682 49.976C192.594 49.976 193.452 49.832 194.256 49.544C195.06 49.256 195.852 48.854 196.632 48.338L198.612 51.056C197.724 51.8 196.662 52.4 195.426 52.856C194.202 53.312 192.852 53.54 191.376 53.54C189.312 53.54 187.572 53.114 186.156 52.262C184.752 51.41 183.69 50.228 182.97 48.716C182.25 47.204 181.89 45.464 181.89 43.496C181.89 41.6 182.244 39.89 182.952 38.366C183.66 36.842 184.68 35.636 186.012 34.748C187.344 33.848 188.952 33.398 190.836 33.398C192.588 33.398 194.1 33.782 195.372 34.55C196.644 35.318 197.628 36.422 198.324 37.862C199.02 39.29 199.368 41.012 199.368 43.028C199.368 43.352 199.356 43.682 199.332 44.018C199.32 44.354 199.302 44.654 199.278 44.918H186.768ZM190.854 36.746C189.702 36.746 188.754 37.16 188.01 37.988C187.278 38.804 186.846 40.1 186.714 41.876H194.742C194.718 40.268 194.382 39.014 193.734 38.114C193.098 37.202 192.138 36.746 190.854 36.746ZM203.944 53V33.938H208.084L208.426 36.296C209.242 35.336 210.16 34.616 211.18 34.136C212.2 33.644 213.298 33.398 214.474 33.398C216.19 33.398 217.498 33.896 218.398 34.892C219.298 35.876 219.748 37.262 219.748 39.05V53H214.996V40.904C214.996 39.944 214.936 39.176 214.816 38.6C214.696 38.012 214.468 37.592 214.132 37.34C213.796 37.076 213.31 36.944 212.674 36.944C212.158 36.944 211.66 37.058 211.18 37.286C210.712 37.514 210.268 37.82 209.848 38.204C209.44 38.588 209.056 39.014 208.696 39.482V53H203.944ZM229.22 44.918C229.316 46.106 229.586 47.072 230.03 47.816C230.486 48.56 231.068 49.106 231.776 49.454C232.484 49.802 233.27 49.976 234.134 49.976C235.046 49.976 235.904 49.832 236.708 49.544C237.512 49.256 238.304 48.854 239.084 48.338L241.064 51.056C240.176 51.8 239.114 52.4 237.878 52.856C236.654 53.312 235.304 53.54 233.828 53.54C231.764 53.54 230.024 53.114 228.608 52.262C227.204 51.41 226.142 50.228 225.422 48.716C224.702 47.204 224.342 45.464 224.342 43.496C224.342 41.6 224.696 39.89 225.404 38.366C226.112 36.842 227.132 35.636 228.464 34.748C229.796 33.848 231.404 33.398 233.288 33.398C235.04 33.398 236.552 33.782 237.824 34.55C239.096 35.318 240.08 36.422 240.776 37.862C241.472 39.29 241.82 41.012 241.82 43.028C241.82 43.352 241.808 43.682 241.784 44.018C241.772 44.354 241.754 44.654 241.73 44.918H229.22ZM233.306 36.746C232.154 36.746 231.206 37.16 230.462 37.988C229.73 38.804 229.298 40.1 229.166 41.876H237.194C237.17 40.268 236.834 39.014 236.186 38.114C235.55 37.202 234.59 36.746 233.306 36.746ZM246.576 53V49.706H249.258V37.214H246.576V33.938H252.876L253.758 38.312C254.454 36.692 255.33 35.474 256.386 34.658C257.442 33.83 258.768 33.416 260.364 33.416C260.976 33.416 261.516 33.464 261.984 33.56C262.464 33.656 262.92 33.782 263.352 33.938L261.93 37.934C261.558 37.838 261.204 37.766 260.868 37.718C260.532 37.658 260.154 37.628 259.734 37.628C258.414 37.628 257.262 38.144 256.278 39.176C255.306 40.196 254.55 41.582 254.01 43.334V49.706H257.808V53H246.576ZM259.338 41.372V36.314L259.986 33.938H263.352L262.506 41.372H259.338Z" fill="#895674"/>
<path d="M45.33 233.17V242.16C45.33 242.88 45.2233 243.553 45.01 244.18C44.7967 244.807 44.47 245.35 44.03 245.81C43.5967 246.27 43.05 246.63 42.39 246.89C41.73 247.15 40.9533 247.28 40.06 247.28C39.2467 247.28 38.5133 247.167 37.86 246.94C37.2133 246.713 36.6 246.397 36.02 245.99L37.1 244.28C37.6133 244.62 38.09 244.857 38.53 244.99C38.9767 245.117 39.44 245.18 39.92 245.18C40.72 245.18 41.3667 244.927 41.86 244.42C42.3533 243.907 42.6 243.15 42.6 242.15V235.23H38.4V233.17H45.33ZM56.8522 244.21C56.8522 244.617 56.9122 244.913 57.0322 245.1C57.1522 245.28 57.3455 245.417 57.6122 245.51L57.0422 247.28C56.4755 247.22 55.9922 247.08 55.5922 246.86C55.1989 246.633 54.8955 246.297 54.6822 245.85C54.2822 246.337 53.7755 246.7 53.1622 246.94C52.5555 247.18 51.9189 247.3 51.2522 247.3C50.1722 247.3 49.3155 246.993 48.6822 246.38C48.0489 245.767 47.7322 244.97 47.7322 243.99C47.7322 242.863 48.1722 241.997 49.0522 241.39C49.9389 240.777 51.1922 240.47 52.8122 240.47H54.2922V239.9C54.2922 239.273 54.0989 238.82 53.7122 238.54C53.3255 238.253 52.7689 238.11 52.0422 238.11C51.7022 238.11 51.2755 238.157 50.7622 238.25C50.2555 238.337 49.7322 238.473 49.1922 238.66L48.5622 236.85C49.2355 236.597 49.9122 236.41 50.5922 236.29C51.2789 236.17 51.9022 236.11 52.4622 236.11C53.9489 236.11 55.0522 236.427 55.7722 237.06C56.4922 237.687 56.8522 238.577 56.8522 239.73V244.21ZM52.1122 245.39C52.5122 245.39 52.9155 245.277 53.3222 245.05C53.7355 244.823 54.0589 244.507 54.2922 244.1V242.04H53.2522C52.2722 242.04 51.5622 242.197 51.1222 242.51C50.6889 242.823 50.4722 243.267 50.4722 243.84C50.4722 244.333 50.6122 244.717 50.8922 244.99C51.1722 245.257 51.5789 245.39 52.1122 245.39ZM67.7244 236.11C68.1777 236.11 68.5644 236.207 68.8844 236.4C69.2044 236.587 69.451 236.903 69.6244 237.35C69.7977 237.79 69.8844 238.39 69.8844 239.15V247H67.5844V239.48C67.5844 239 67.5444 238.66 67.4644 238.46C67.391 238.26 67.221 238.16 66.9544 238.16C66.7344 238.16 66.511 238.227 66.2844 238.36C66.0644 238.487 65.8344 238.717 65.5944 239.05V247H63.6044V239.48C63.6044 239 63.5644 238.66 63.4844 238.46C63.411 238.26 63.241 238.16 62.9744 238.16C62.7477 238.16 62.5244 238.227 62.3044 238.36C62.0844 238.487 61.8544 238.717 61.6144 239.05V247H59.2844V236.41H61.2544L61.4244 237.51C61.7377 237.07 62.0677 236.727 62.4144 236.48C62.761 236.233 63.1777 236.11 63.6644 236.11C64.0644 236.11 64.4177 236.21 64.7244 236.41C65.0377 236.603 65.261 236.937 65.3944 237.41C65.701 237.023 66.0444 236.71 66.4244 236.47C66.8044 236.23 67.2377 236.11 67.7244 236.11ZM92.9188 246.41C92.5254 246.67 92.0488 246.883 91.4888 247.05C90.9288 247.217 90.3221 247.3 89.6688 247.3C88.3754 247.3 87.4021 246.967 86.7488 246.3C86.0954 245.627 85.7688 244.733 85.7688 243.62V238.28H83.4688V236.41H85.7688V234.08L88.4088 233.76V236.41H91.9088L91.6388 238.28H88.4088V243.61C88.4088 244.157 88.5421 244.557 88.8088 244.81C89.0754 245.063 89.5054 245.19 90.0988 245.19C90.4788 245.19 90.8254 245.147 91.1388 245.06C91.4588 244.967 91.7488 244.85 92.0088 244.71L92.9188 246.41ZM99.9709 236.11C101.024 236.11 101.918 236.34 102.651 236.8C103.384 237.26 103.941 237.91 104.321 238.75C104.708 239.583 104.901 240.56 104.901 241.68C104.901 242.827 104.708 243.82 104.321 244.66C103.934 245.5 103.374 246.15 102.641 246.61C101.908 247.07 101.014 247.3 99.9609 247.3C98.9143 247.3 98.0209 247.077 97.2809 246.63C96.5476 246.177 95.9876 245.533 95.6009 244.7C95.2143 243.86 95.0209 242.86 95.0209 241.7C95.0209 240.593 95.2143 239.62 95.6009 238.78C95.9876 237.94 96.5509 237.287 97.2909 236.82C98.0309 236.347 98.9243 236.11 99.9709 236.11ZM99.9709 238.1C99.2309 238.1 98.6776 238.39 98.3109 238.97C97.9509 239.55 97.7709 240.46 97.7709 241.7C97.7709 242.953 97.9509 243.87 98.3109 244.45C98.6709 245.023 99.2209 245.31 99.9609 245.31C100.701 245.31 101.251 245.023 101.611 244.45C101.971 243.87 102.151 242.947 102.151 241.68C102.151 240.447 101.971 239.543 101.611 238.97C101.251 238.39 100.704 238.1 99.9709 238.1ZM128.745 236.41L125.155 247.02C124.862 247.887 124.482 248.63 124.015 249.25C123.549 249.87 122.959 250.36 122.245 250.72C121.539 251.087 120.672 251.303 119.645 251.37L119.315 249.46C120.029 249.36 120.599 249.21 121.025 249.01C121.452 248.81 121.792 248.547 122.045 248.22C122.305 247.893 122.529 247.487 122.715 247H121.815L118.345 236.41H121.135L123.535 245.24L126.035 236.41H128.745ZM135.348 236.11C136.401 236.11 137.294 236.34 138.028 236.8C138.761 237.26 139.318 237.91 139.698 238.75C140.084 239.583 140.278 240.56 140.278 241.68C140.278 242.827 140.084 243.82 139.698 244.66C139.311 245.5 138.751 246.15 138.018 246.61C137.284 247.07 136.391 247.3 135.338 247.3C134.291 247.3 133.398 247.077 132.658 246.63C131.924 246.177 131.364 245.533 130.978 244.7C130.591 243.86 130.398 242.86 130.398 241.7C130.398 240.593 130.591 239.62 130.978 238.78C131.364 237.94 131.928 237.287 132.668 236.82C133.408 236.347 134.301 236.11 135.348 236.11ZM135.348 238.1C134.608 238.1 134.054 238.39 133.688 238.97C133.328 239.55 133.148 240.46 133.148 241.7C133.148 242.953 133.328 243.87 133.688 244.45C134.048 245.023 134.598 245.31 135.338 245.31C136.078 245.31 136.628 245.023 136.988 244.45C137.348 243.87 137.528 242.947 137.528 241.68C137.528 240.447 137.348 239.543 136.988 238.97C136.628 238.39 136.081 238.1 135.348 238.1ZM145.38 236.41V243.75C145.38 244.323 145.493 244.727 145.72 244.96C145.946 245.193 146.276 245.31 146.71 245.31C147.123 245.31 147.526 245.187 147.92 244.94C148.313 244.687 148.633 244.367 148.88 243.98V236.41H151.52V247H149.22L149.08 245.7C148.7 246.22 148.213 246.617 147.62 246.89C147.026 247.163 146.413 247.3 145.78 247.3C144.76 247.3 143.996 247.013 143.49 246.44C142.99 245.86 142.74 245.07 142.74 244.07V236.41H145.38ZM154.632 247V245.17H156.122V238.23H154.632V236.41H158.132L158.622 238.84C159.009 237.94 159.495 237.263 160.082 236.81C160.669 236.35 161.405 236.12 162.292 236.12C162.632 236.12 162.932 236.147 163.192 236.2C163.459 236.253 163.712 236.323 163.952 236.41L163.162 238.63C162.955 238.577 162.759 238.537 162.572 238.51C162.385 238.477 162.175 238.46 161.942 238.46C161.209 238.46 160.569 238.747 160.022 239.32C159.482 239.887 159.062 240.657 158.762 241.63V245.17H160.872V247H154.632ZM161.722 240.54V237.73L162.082 236.41H163.952L163.482 240.54H161.722ZM184.686 231.9C185.393 231.9 186.02 231.957 186.566 232.07C187.113 232.183 187.61 232.337 188.056 232.53L187.296 234.31C186.943 234.163 186.573 234.057 186.186 233.99C185.8 233.923 185.413 233.89 185.026 233.89C184.36 233.89 183.873 234.017 183.566 234.27C183.266 234.517 183.116 234.913 183.116 235.46V237.13H186.616L186.326 239.02H183.116V247H180.486V239.02H178.156V237.13H180.486V235.4C180.486 234.713 180.653 234.11 180.986 233.59C181.32 233.063 181.8 232.65 182.426 232.35C183.06 232.05 183.813 231.9 184.686 231.9ZM198.358 244.21C198.358 244.617 198.418 244.913 198.538 245.1C198.658 245.28 198.852 245.417 199.118 245.51L198.548 247.28C197.982 247.22 197.498 247.08 197.098 246.86C196.705 246.633 196.402 246.297 196.188 245.85C195.788 246.337 195.282 246.7 194.668 246.94C194.062 247.18 193.425 247.3 192.758 247.3C191.678 247.3 190.822 246.993 190.188 246.38C189.555 245.767 189.238 244.97 189.238 243.99C189.238 242.863 189.678 241.997 190.558 241.39C191.445 240.777 192.698 240.47 194.318 240.47H195.798V239.9C195.798 239.273 195.605 238.82 195.218 238.54C194.832 238.253 194.275 238.11 193.548 238.11C193.208 238.11 192.782 238.157 192.268 238.25C191.762 238.337 191.238 238.473 190.698 238.66L190.068 236.85C190.742 236.597 191.418 236.41 192.098 236.29C192.785 236.17 193.408 236.11 193.968 236.11C195.455 236.11 196.558 236.427 197.278 237.06C197.998 237.687 198.358 238.577 198.358 239.73V244.21ZM193.618 245.39C194.018 245.39 194.422 245.277 194.828 245.05C195.242 244.823 195.565 244.507 195.798 244.1V242.04H194.758C193.778 242.04 193.068 242.197 192.628 242.51C192.195 242.823 191.978 243.267 191.978 243.84C191.978 244.333 192.118 244.717 192.398 244.99C192.678 245.257 193.085 245.39 193.618 245.39ZM211.291 236.41L207.651 247H204.551L200.891 236.41H203.731L206.141 244.89L208.601 236.41H211.291ZM217.893 236.11C218.946 236.11 219.839 236.34 220.573 236.8C221.306 237.26 221.863 237.91 222.243 238.75C222.629 239.583 222.823 240.56 222.823 241.68C222.823 242.827 222.629 243.82 222.243 244.66C221.856 245.5 221.296 246.15 220.563 246.61C219.829 247.07 218.936 247.3 217.883 247.3C216.836 247.3 215.943 247.077 215.203 246.63C214.469 246.177 213.909 245.533 213.523 244.7C213.136 243.86 212.943 242.86 212.943 241.7C212.943 240.593 213.136 239.62 213.523 238.78C213.909 237.94 214.473 237.287 215.213 236.82C215.953 236.347 216.846 236.11 217.893 236.11ZM217.893 238.1C217.153 238.1 216.599 238.39 216.233 238.97C215.873 239.55 215.693 240.46 215.693 241.7C215.693 242.953 215.873 243.87 216.233 244.45C216.593 245.023 217.143 245.31 217.883 245.31C218.623 245.31 219.173 245.023 219.533 244.45C219.893 243.87 220.073 242.947 220.073 241.68C220.073 240.447 219.893 239.543 219.533 238.97C219.173 238.39 218.626 238.1 217.893 238.1ZM225.385 247V245.17H226.875V238.23H225.385V236.41H228.885L229.375 238.84C229.762 237.94 230.248 237.263 230.835 236.81C231.422 236.35 232.158 236.12 233.045 236.12C233.385 236.12 233.685 236.147 233.945 236.2C234.212 236.253 234.465 236.323 234.705 236.41L233.915 238.63C233.708 238.577 233.512 238.537 233.325 238.51C233.138 238.477 232.928 238.46 232.695 238.46C231.962 238.46 231.322 238.747 230.775 239.32C230.235 239.887 229.815 240.657 229.515 241.63V245.17H231.625V247H225.385ZM232.475 240.54V237.73L232.835 236.41H234.705L234.235 240.54H232.475ZM243.167 236.41V245.13H245.957V247H237.427V245.13H240.527V238.28H237.527V236.41H243.167ZM241.457 231.07C241.944 231.07 242.337 231.22 242.637 231.52C242.944 231.82 243.097 232.193 243.097 232.64C243.097 233.087 242.944 233.463 242.637 233.77C242.337 234.07 241.944 234.22 241.457 234.22C240.971 234.22 240.574 234.07 240.267 233.77C239.961 233.463 239.807 233.087 239.807 232.64C239.807 232.193 239.961 231.82 240.267 231.52C240.574 231.22 240.971 231.07 241.457 231.07ZM258.009 246.41C257.616 246.67 257.139 246.883 256.579 247.05C256.019 247.217 255.413 247.3 254.759 247.3C253.466 247.3 252.493 246.967 251.839 246.3C251.186 245.627 250.859 244.733 250.859 243.62V238.28H248.559V236.41H250.859V234.08L253.499 233.76V236.41H256.999L256.729 238.28H253.499V243.61C253.499 244.157 253.633 244.557 253.899 244.81C254.166 245.063 254.596 245.19 255.189 245.19C255.569 245.19 255.916 245.147 256.229 245.06C256.549 244.967 256.839 244.85 257.099 244.71L258.009 246.41ZM262.912 242.51C262.965 243.17 263.115 243.707 263.362 244.12C263.615 244.533 263.938 244.837 264.332 245.03C264.725 245.223 265.162 245.32 265.642 245.32C266.148 245.32 266.625 245.24 267.072 245.08C267.518 244.92 267.958 244.697 268.392 244.41L269.492 245.92C268.998 246.333 268.408 246.667 267.722 246.92C267.042 247.173 266.292 247.3 265.472 247.3C264.325 247.3 263.358 247.063 262.572 246.59C261.792 246.117 261.202 245.46 260.802 244.62C260.402 243.78 260.202 242.813 260.202 241.72C260.202 240.667 260.398 239.717 260.792 238.87C261.185 238.023 261.752 237.353 262.492 236.86C263.232 236.36 264.125 236.11 265.172 236.11C266.145 236.11 266.985 236.323 267.692 236.75C268.398 237.177 268.945 237.79 269.332 238.59C269.718 239.383 269.912 240.34 269.912 241.46C269.912 241.64 269.905 241.823 269.892 242.01C269.885 242.197 269.875 242.363 269.862 242.51H262.912ZM265.182 237.97C264.542 237.97 264.015 238.2 263.602 238.66C263.195 239.113 262.955 239.833 262.882 240.82H267.342C267.328 239.927 267.142 239.23 266.782 238.73C266.428 238.223 265.895 237.97 265.182 237.97ZM40.64 275.35C41.26 275.35 41.7567 275.243 42.13 275.03C42.51 274.81 42.7 274.503 42.7 274.11C42.7 273.85 42.6367 273.63 42.51 273.45C42.39 273.27 42.15 273.103 41.79 272.95C41.43 272.79 40.89 272.613 40.17 272.42C39.49 272.247 38.8933 272.033 38.38 271.78C37.8733 271.52 37.4767 271.187 37.19 270.78C36.91 270.373 36.77 269.86 36.77 269.24C36.77 268.62 36.9433 268.077 37.29 267.61C37.6367 267.137 38.1367 266.77 38.79 266.51C39.45 266.243 40.2433 266.11 41.17 266.11C42.0767 266.11 42.87 266.23 43.55 266.47C44.23 266.703 44.8133 266.997 45.3 267.35L44.22 268.96C43.7933 268.687 43.33 268.467 42.83 268.3C42.3367 268.127 41.8033 268.04 41.23 268.04C40.61 268.04 40.1567 268.13 39.87 268.31C39.59 268.49 39.45 268.74 39.45 269.06C39.45 269.287 39.52 269.48 39.66 269.64C39.8067 269.793 40.0667 269.943 40.44 270.09C40.82 270.23 41.36 270.4 42.06 270.6C42.7467 270.787 43.3433 271.007 43.85 271.26C44.3633 271.513 44.76 271.85 45.04 272.27C45.32 272.69 45.46 273.24 45.46 273.92C45.46 274.687 45.2367 275.32 44.79 275.82C44.3433 276.32 43.7533 276.693 43.02 276.94C42.2933 277.18 41.5033 277.3 40.65 277.3C39.65 277.3 38.7767 277.157 38.03 276.87C37.2833 276.583 36.65 276.213 36.13 275.76L37.5 274.22C37.9133 274.547 38.3833 274.817 38.91 275.03C39.4433 275.243 40.02 275.35 40.64 275.35ZM52.8022 266.11C53.8555 266.11 54.7489 266.34 55.4822 266.8C56.2155 267.26 56.7722 267.91 57.1522 268.75C57.5389 269.583 57.7322 270.56 57.7322 271.68C57.7322 272.827 57.5389 273.82 57.1522 274.66C56.7655 275.5 56.2055 276.15 55.4722 276.61C54.7389 277.07 53.8455 277.3 52.7922 277.3C51.7455 277.3 50.8522 277.077 50.1122 276.63C49.3789 276.177 48.8189 275.533 48.4322 274.7C48.0455 273.86 47.8522 272.86 47.8522 271.7C47.8522 270.593 48.0455 269.62 48.4322 268.78C48.8189 267.94 49.3822 267.287 50.1222 266.82C50.8622 266.347 51.7555 266.11 52.8022 266.11ZM52.8022 268.1C52.0622 268.1 51.5089 268.39 51.1422 268.97C50.7822 269.55 50.6022 270.46 50.6022 271.7C50.6022 272.953 50.7822 273.87 51.1422 274.45C51.5022 275.023 52.0522 275.31 52.7922 275.31C53.5322 275.31 54.0822 275.023 54.4422 274.45C54.8022 273.87 54.9822 272.947 54.9822 271.68C54.9822 270.447 54.8022 269.543 54.4422 268.97C54.0822 268.39 53.5355 268.1 52.8022 268.1ZM60.1944 277V266.41H62.4944L62.6844 267.72C63.1377 267.187 63.6477 266.787 64.2144 266.52C64.781 266.247 65.391 266.11 66.0444 266.11C66.9977 266.11 67.7244 266.387 68.2244 266.94C68.7244 267.487 68.9744 268.257 68.9744 269.25V277H66.3344V270.28C66.3344 269.747 66.301 269.32 66.2344 269C66.1677 268.673 66.041 268.44 65.8544 268.3C65.6677 268.153 65.3977 268.08 65.0444 268.08C64.7577 268.08 64.481 268.143 64.2144 268.27C63.9544 268.397 63.7077 268.567 63.4744 268.78C63.2477 268.993 63.0344 269.23 62.8344 269.49V277H60.1944ZM81.1166 264.92L81.7766 266.98C81.3766 267.12 80.9266 267.22 80.4266 267.28C79.9266 267.333 79.3532 267.36 78.7066 267.36C79.3532 267.64 79.8432 267.997 80.1766 268.43C80.5166 268.857 80.6866 269.4 80.6866 270.06C80.6866 270.747 80.5099 271.36 80.1566 271.9C79.8099 272.44 79.3132 272.863 78.6666 273.17C78.0266 273.477 77.2632 273.63 76.3766 273.63C76.1032 273.63 75.8599 273.617 75.6466 273.59C75.4332 273.563 75.2266 273.527 75.0266 273.48C74.8932 273.553 74.7899 273.66 74.7166 273.8C74.6432 273.94 74.6066 274.083 74.6066 274.23C74.6066 274.43 74.6832 274.603 74.8366 274.75C74.9966 274.89 75.3366 274.96 75.8566 274.96H77.6566C78.4366 274.96 79.1199 275.093 79.7066 275.36C80.2999 275.62 80.7599 275.973 81.0866 276.42C81.4199 276.867 81.5866 277.38 81.5866 277.96C81.5866 279.027 81.1232 279.86 80.1966 280.46C79.2699 281.06 77.9166 281.36 76.1366 281.36C74.8632 281.36 73.8699 281.23 73.1566 280.97C72.4499 280.71 71.9532 280.33 71.6666 279.83C71.3799 279.337 71.2366 278.74 71.2366 278.04H73.5866C73.5866 278.38 73.6532 278.66 73.7866 278.88C73.9266 279.1 74.1832 279.263 74.5566 279.37C74.9366 279.477 75.4799 279.53 76.1866 279.53C76.8932 279.53 77.4466 279.473 77.8466 279.36C78.2532 279.247 78.5399 279.083 78.7066 278.87C78.8732 278.663 78.9566 278.42 78.9566 278.14C78.9566 277.76 78.7966 277.463 78.4766 277.25C78.1566 277.037 77.7032 276.93 77.1166 276.93H75.3666C74.2999 276.93 73.5232 276.723 73.0366 276.31C72.5499 275.89 72.3066 275.407 72.3066 274.86C72.3066 274.487 72.4066 274.13 72.6066 273.79C72.8132 273.443 73.1066 273.15 73.4866 272.91C72.8332 272.563 72.3599 272.15 72.0666 271.67C71.7799 271.183 71.6366 270.597 71.6366 269.91C71.6366 269.143 71.8299 268.477 72.2166 267.91C72.6032 267.343 73.1399 266.903 73.8266 266.59C74.5132 266.277 75.3032 266.12 76.1966 266.12C77.0166 266.127 77.7132 266.077 78.2866 265.97C78.8666 265.863 79.3766 265.717 79.8166 265.53C80.2632 265.343 80.6966 265.14 81.1166 264.92ZM76.2466 267.88C75.6199 267.88 75.1399 268.063 74.8066 268.43C74.4799 268.797 74.3166 269.283 74.3166 269.89C74.3166 270.517 74.4866 271.013 74.8266 271.38C75.1666 271.747 75.6432 271.93 76.2566 271.93C76.8632 271.93 77.3232 271.753 77.6366 271.4C77.9566 271.04 78.1166 270.527 78.1166 269.86C78.1166 269.193 77.9566 268.697 77.6366 268.37C77.3232 268.043 76.8599 267.88 76.2466 267.88ZM87.8088 275.35C88.4288 275.35 88.9254 275.243 89.2988 275.03C89.6788 274.81 89.8688 274.503 89.8688 274.11C89.8688 273.85 89.8054 273.63 89.6788 273.45C89.5588 273.27 89.3188 273.103 88.9588 272.95C88.5988 272.79 88.0588 272.613 87.3388 272.42C86.6588 272.247 86.0621 272.033 85.5488 271.78C85.0421 271.52 84.6454 271.187 84.3588 270.78C84.0788 270.373 83.9388 269.86 83.9388 269.24C83.9388 268.62 84.1121 268.077 84.4588 267.61C84.8054 267.137 85.3054 266.77 85.9588 266.51C86.6188 266.243 87.4121 266.11 88.3388 266.11C89.2454 266.11 90.0388 266.23 90.7188 266.47C91.3988 266.703 91.9821 266.997 92.4688 267.35L91.3888 268.96C90.9621 268.687 90.4988 268.467 89.9988 268.3C89.5054 268.127 88.9721 268.04 88.3988 268.04C87.7788 268.04 87.3254 268.13 87.0388 268.31C86.7588 268.49 86.6188 268.74 86.6188 269.06C86.6188 269.287 86.6888 269.48 86.8288 269.64C86.9754 269.793 87.2354 269.943 87.6088 270.09C87.9888 270.23 88.5288 270.4 89.2288 270.6C89.9154 270.787 90.5121 271.007 91.0188 271.26C91.5321 271.513 91.9288 271.85 92.2088 272.27C92.4888 272.69 92.6288 273.24 92.6288 273.92C92.6288 274.687 92.4054 275.32 91.9588 275.82C91.5121 276.32 90.9221 276.693 90.1888 276.94C89.4621 277.18 88.6721 277.3 87.8188 277.3C86.8188 277.3 85.9454 277.157 85.1988 276.87C84.4521 276.583 83.8188 276.213 83.2988 275.76L84.6688 274.22C85.0821 274.547 85.5521 274.817 86.0788 275.03C86.6121 275.243 87.1888 275.35 87.8088 275.35ZM115.813 274.21C115.813 274.617 115.873 274.913 115.993 275.1C116.113 275.28 116.306 275.417 116.573 275.51L116.003 277.28C115.436 277.22 114.953 277.08 114.553 276.86C114.16 276.633 113.856 276.297 113.643 275.85C113.243 276.337 112.736 276.7 112.123 276.94C111.516 277.18 110.88 277.3 110.213 277.3C109.133 277.3 108.276 276.993 107.643 276.38C107.01 275.767 106.693 274.97 106.693 273.99C106.693 272.863 107.133 271.997 108.013 271.39C108.9 270.777 110.153 270.47 111.773 270.47H113.253V269.9C113.253 269.273 113.06 268.82 112.673 268.54C112.286 268.253 111.73 268.11 111.003 268.11C110.663 268.11 110.236 268.157 109.723 268.25C109.216 268.337 108.693 268.473 108.153 268.66L107.523 266.85C108.196 266.597 108.873 266.41 109.553 266.29C110.24 266.17 110.863 266.11 111.423 266.11C112.91 266.11 114.013 266.427 114.733 267.06C115.453 267.687 115.813 268.577 115.813 269.73V274.21ZM111.073 275.39C111.473 275.39 111.876 275.277 112.283 275.05C112.696 274.823 113.02 274.507 113.253 274.1V272.04H112.213C111.233 272.04 110.523 272.197 110.083 272.51C109.65 272.823 109.433 273.267 109.433 273.84C109.433 274.333 109.573 274.717 109.853 274.99C110.133 275.257 110.54 275.39 111.073 275.39ZM119.155 277V266.41H121.455L121.645 267.72C122.099 267.187 122.609 266.787 123.175 266.52C123.742 266.247 124.352 266.11 125.005 266.11C125.959 266.11 126.685 266.387 127.185 266.94C127.685 267.487 127.935 268.257 127.935 269.25V277H125.295V270.28C125.295 269.747 125.262 269.32 125.195 269C125.129 268.673 125.002 268.44 124.815 268.3C124.629 268.153 124.359 268.08 124.005 268.08C123.719 268.08 123.442 268.143 123.175 268.27C122.915 268.397 122.669 268.567 122.435 268.78C122.209 268.993 121.995 269.23 121.795 269.49V277H119.155ZM137.088 261.9L139.728 262.18V277H137.388L137.228 275.75C136.901 276.217 136.491 276.593 135.998 276.88C135.504 277.16 134.931 277.3 134.278 277.3C133.384 277.3 132.644 277.067 132.058 276.6C131.478 276.133 131.044 275.48 130.758 274.64C130.478 273.793 130.338 272.81 130.338 271.69C130.338 270.61 130.504 269.65 130.838 268.81C131.171 267.97 131.651 267.31 132.278 266.83C132.911 266.35 133.661 266.11 134.528 266.11C135.048 266.11 135.521 266.2 135.948 266.38C136.374 266.56 136.754 266.827 137.088 267.18V261.9ZM135.238 268.08C134.571 268.08 134.044 268.37 133.658 268.95C133.278 269.523 133.088 270.44 133.088 271.7C133.088 272.587 133.168 273.297 133.328 273.83C133.488 274.357 133.714 274.737 134.008 274.97C134.301 275.203 134.648 275.32 135.048 275.32C135.488 275.32 135.874 275.19 136.208 274.93C136.548 274.663 136.841 274.333 137.088 273.94V269.12C136.841 268.793 136.564 268.54 136.258 268.36C135.958 268.173 135.618 268.08 135.238 268.08ZM162.982 274.21C162.982 274.617 163.042 274.913 163.162 275.1C163.282 275.28 163.475 275.417 163.742 275.51L163.172 277.28C162.605 277.22 162.122 277.08 161.722 276.86C161.329 276.633 161.025 276.297 160.812 275.85C160.412 276.337 159.905 276.7 159.292 276.94C158.685 277.18 158.049 277.3 157.382 277.3C156.302 277.3 155.445 276.993 154.812 276.38C154.179 275.767 153.862 274.97 153.862 273.99C153.862 272.863 154.302 271.997 155.182 271.39C156.069 270.777 157.322 270.47 158.942 270.47H160.422V269.9C160.422 269.273 160.229 268.82 159.842 268.54C159.455 268.253 158.899 268.11 158.172 268.11C157.832 268.11 157.405 268.157 156.892 268.25C156.385 268.337 155.862 268.473 155.322 268.66L154.692 266.85C155.365 266.597 156.042 266.41 156.722 266.29C157.409 266.17 158.032 266.11 158.592 266.11C160.079 266.11 161.182 266.427 161.902 267.06C162.622 267.687 162.982 268.577 162.982 269.73V274.21ZM158.242 275.39C158.642 275.39 159.045 275.277 159.452 275.05C159.865 274.823 160.189 274.507 160.422 274.1V272.04H159.382C158.402 272.04 157.692 272.197 157.252 272.51C156.819 272.823 156.602 273.267 156.602 273.84C156.602 274.333 156.742 274.717 157.022 274.99C157.302 275.257 157.709 275.39 158.242 275.39ZM166.424 277V275.17H167.914V268.23H166.424V266.41H169.924L170.414 268.84C170.801 267.94 171.287 267.263 171.874 266.81C172.461 266.35 173.197 266.12 174.084 266.12C174.424 266.12 174.724 266.147 174.984 266.2C175.251 266.253 175.504 266.323 175.744 266.41L174.954 268.63C174.747 268.577 174.551 268.537 174.364 268.51C174.177 268.477 173.967 268.46 173.734 268.46C173.001 268.46 172.361 268.747 171.814 269.32C171.274 269.887 170.854 270.657 170.554 271.63V275.17H172.664V277H166.424ZM173.514 270.54V267.73L173.874 266.41H175.744L175.274 270.54H173.514ZM187.256 276.41C186.863 276.67 186.386 276.883 185.826 277.05C185.266 277.217 184.66 277.3 184.006 277.3C182.713 277.3 181.74 276.967 181.086 276.3C180.433 275.627 180.106 274.733 180.106 273.62V268.28H177.806V266.41H180.106V264.08L182.746 263.76V266.41H186.246L185.976 268.28H182.746V273.61C182.746 274.157 182.88 274.557 183.146 274.81C183.413 275.063 183.843 275.19 184.436 275.19C184.816 275.19 185.163 275.147 185.476 275.06C185.796 274.967 186.086 274.85 186.346 274.71L187.256 276.41ZM195.998 266.41V275.13H198.788V277H190.258V275.13H193.358V268.28H190.358V266.41H195.998ZM194.288 261.07C194.775 261.07 195.168 261.22 195.468 261.52C195.775 261.82 195.928 262.193 195.928 262.64C195.928 263.087 195.775 263.463 195.468 263.77C195.168 264.07 194.775 264.22 194.288 264.22C193.802 264.22 193.405 264.07 193.098 263.77C192.792 263.463 192.638 263.087 192.638 262.64C192.638 262.193 192.792 261.82 193.098 261.52C193.405 261.22 193.802 261.07 194.288 261.07ZM205.731 275.35C206.351 275.35 206.847 275.243 207.221 275.03C207.601 274.81 207.791 274.503 207.791 274.11C207.791 273.85 207.727 273.63 207.601 273.45C207.481 273.27 207.241 273.103 206.881 272.95C206.521 272.79 205.981 272.613 205.261 272.42C204.581 272.247 203.984 272.033 203.471 271.78C202.964 271.52 202.567 271.187 202.281 270.78C202.001 270.373 201.861 269.86 201.861 269.24C201.861 268.62 202.034 268.077 202.381 267.61C202.727 267.137 203.227 266.77 203.881 266.51C204.541 266.243 205.334 266.11 206.261 266.11C207.167 266.11 207.961 266.23 208.641 266.47C209.321 266.703 209.904 266.997 210.391 267.35L209.311 268.96C208.884 268.687 208.421 268.467 207.921 268.3C207.427 268.127 206.894 268.04 206.321 268.04C205.701 268.04 205.247 268.13 204.961 268.31C204.681 268.49 204.541 268.74 204.541 269.06C204.541 269.287 204.611 269.48 204.751 269.64C204.897 269.793 205.157 269.943 205.531 270.09C205.911 270.23 206.451 270.4 207.151 270.6C207.837 270.787 208.434 271.007 208.941 271.26C209.454 271.513 209.851 271.85 210.131 272.27C210.411 272.69 210.551 273.24 210.551 273.92C210.551 274.687 210.327 275.32 209.881 275.82C209.434 276.32 208.844 276.693 208.111 276.94C207.384 277.18 206.594 277.3 205.741 277.3C204.741 277.3 203.867 277.157 203.121 276.87C202.374 276.583 201.741 276.213 201.221 275.76L202.591 274.22C203.004 274.547 203.474 274.817 204.001 275.03C204.534 275.243 205.111 275.35 205.731 275.35ZM222.633 276.41C222.239 276.67 221.763 276.883 221.203 277.05C220.643 277.217 220.036 277.3 219.383 277.3C218.089 277.3 217.116 276.967 216.463 276.3C215.809 275.627 215.483 274.733 215.483 273.62V268.28H213.183V266.41H215.483V264.08L218.123 263.76V266.41H221.623L221.353 268.28H218.123V273.61C218.123 274.157 218.256 274.557 218.523 274.81C218.789 275.063 219.219 275.19 219.813 275.19C220.193 275.19 220.539 275.147 220.853 275.06C221.173 274.967 221.463 274.85 221.723 274.71L222.633 276.41ZM229.315 275.35C229.935 275.35 230.432 275.243 230.805 275.03C231.185 274.81 231.375 274.503 231.375 274.11C231.375 273.85 231.312 273.63 231.185 273.45C231.065 273.27 230.825 273.103 230.465 272.95C230.105 272.79 229.565 272.613 228.845 272.42C228.165 272.247 227.568 272.033 227.055 271.78C226.548 271.52 226.152 271.187 225.865 270.78C225.585 270.373 225.445 269.86 225.445 269.24C225.445 268.62 225.618 268.077 225.965 267.61C226.312 267.137 226.812 266.77 227.465 266.51C228.125 266.243 228.918 266.11 229.845 266.11C230.752 266.11 231.545 266.23 232.225 266.47C232.905 266.703 233.488 266.997 233.975 267.35L232.895 268.96C232.468 268.687 232.005 268.467 231.505 268.3C231.012 268.127 230.478 268.04 229.905 268.04C229.285 268.04 228.832 268.13 228.545 268.31C228.265 268.49 228.125 268.74 228.125 269.06C228.125 269.287 228.195 269.48 228.335 269.64C228.482 269.793 228.742 269.943 229.115 270.09C229.495 270.23 230.035 270.4 230.735 270.6C231.422 270.787 232.018 271.007 232.525 271.26C233.038 271.513 233.435 271.85 233.715 272.27C233.995 272.69 234.135 273.24 234.135 273.92C234.135 274.687 233.912 275.32 233.465 275.82C233.018 276.32 232.428 276.693 231.695 276.94C230.968 277.18 230.178 277.3 229.325 277.3C228.325 277.3 227.452 277.157 226.705 276.87C225.958 276.583 225.325 276.213 224.805 275.76L226.175 274.22C226.588 274.547 227.058 274.817 227.585 275.03C228.118 275.243 228.695 275.35 229.315 275.35Z" fill="#895674"/>
<path d="M76.8748 83.3076C52.1919 59.6527 43.4644 81.4371 42.2238 98.1753C42.0488 100.536 44.3134 102.248 46.4656 101.262C47.8838 100.612 49.1405 99.8946 50.2936 99.1695C53.3471 97.2496 79.4789 85.8032 76.8748 83.3076Z" fill="#FFF6C4"/>
<path d="M151.807 84.2521C173.408 62.0626 181.003 82.6268 182.049 98.2991C182.191 100.42 180.14 101.939 178.236 100.992C177.184 100.469 176.233 99.901 175.353 99.3227C172.616 97.5235 149.522 86.5991 151.807 84.2521Z" fill="white" stroke="white" stroke-width="4.04639"/>
<path d="M44.4219 108.145C39.9176 87.1321 44.5928 51.2458 79.4171 86.8708" stroke="#895674" stroke-width="4.85566"/>
<path d="M180.647 108.549C185.151 87.5366 180.476 51.6503 145.652 87.2753" stroke="#895674" stroke-width="4.85566"/>
<path d="M112.876 221C88.1934 221 64.5214 213.582 47.068 200.378C29.6146 187.174 19.8093 169.266 19.8093 150.593C19.8093 131.92 29.6146 114.011 47.068 100.808C64.5214 87.6037 88.1934 80.1858 112.876 80.1858V150.593L112.876 221Z" fill="white"/>
<path d="M112.067 221C136.75 221 160.422 213.582 177.875 200.378C195.329 187.174 205.134 169.266 205.134 150.593C205.134 131.92 195.329 114.011 177.875 100.808C160.422 87.6037 136.75 80.1858 112.067 80.1858V150.593L112.067 221Z" fill="#FFF6C4"/>
<rect x="44.244" y="134.262" width="15.3967" height="5.61349" rx="2.80675" transform="rotate(20 44.244 134.262)" fill="#895674" stroke="#895674" stroke-width="0.404639"/>
<rect x="40.6519" y="148.64" width="15.3967" height="5.61349" rx="2.80675" transform="rotate(-0.999999 40.6519 148.64)" fill="#895674" stroke="#895674" stroke-width="0.404639"/>
<rect x="-0.120921" y="0.259315" width="15.3967" height="5.61349" rx="2.80675" transform="matrix(-0.939693 0.34202 0.34202 0.939693 178.386 134.464)" fill="#895674" stroke="#895674" stroke-width="0.404639"/>
<rect x="42.2299" y="164.041" width="15.3967" height="5.61349" rx="2.80675" transform="rotate(-18.5 42.2299 164.041)" fill="#895674" stroke="#895674" stroke-width="0.404639"/>
<rect x="-0.256061" y="0.127667" width="15.3967" height="5.61349" rx="2.80675" transform="matrix(-0.948324 -0.317305 -0.317305 0.948324 180.297 163.625)" fill="#895674" stroke="#895674" stroke-width="0.404639"/>
<rect x="-0.20582" y="0.198758" width="15.3967" height="5.61349" rx="2.80675" transform="matrix(-0.999848 -0.0174524 -0.0174524 0.999848 181.784 148.842)" fill="#895674" stroke="#895674" stroke-width="0.404639"/>
<circle cx="77.6533" cy="144.653" r="4.45103" fill="#895674" stroke="#895674" stroke-width="0.404639"/>
<circle cx="144.653" cy="143.653" r="4.45103" fill="#895674" stroke="#895674" stroke-width="0.404639"/>
<path d="M106.925 156.914C106.03 155.417 107.126 153.52 108.869 153.546L116.706 153.667C118.403 153.693 119.447 155.535 118.599 157.005L114.786 163.609C113.937 165.08 111.82 165.096 110.948 163.639L106.925 156.914Z" fill="#895674" stroke="#895674" stroke-width="0.404639"/>
<path d="M84.9563 173.454C92.7793 181.257 109.235 190.119 112.472 163.137" stroke="#895674" stroke-width="4.85566"/>
<circle cx="84.5514" cy="173.253" r="2.22551" fill="#895674" stroke="#895674" stroke-width="0.404639"/>
<circle cx="112.471" cy="162.732" r="2.22551" fill="black" stroke="#895674" stroke-width="0.404639"/>
<path d="M139.987 173.454C132.164 181.257 115.708 190.119 112.471 163.137" stroke="#895674" stroke-width="4.85566"/>
<circle cx="2.42783" cy="2.42783" r="2.22551" transform="matrix(-1 0 0 1 142.819 170.825)" fill="#895674" stroke="#895674" stroke-width="0.404639"/>
<circle cx="2.42783" cy="2.42783" r="2.22551" transform="matrix(-1 0 0 1 114.899 160.304)" fill="#895674" stroke="#895674" stroke-width="0.404639"/>
<path d="M112.471 83.2209C137.457 83.2209 159.964 90.9191 176.158 103.224C192.35 115.527 202.099 132.303 202.099 150.593C202.099 168.883 192.35 185.659 176.158 197.962C159.964 210.267 137.457 217.965 112.471 217.965C87.4862 217.965 64.98 210.267 48.7859 197.962C32.5939 185.659 22.8445 168.883 22.8445 150.593C22.8445 132.303 32.5939 115.527 48.7859 103.224C64.98 90.9193 87.4861 83.221 112.471 83.2209Z" stroke="#895674" stroke-width="6.06958"/>
<circle cx="287.857" cy="99.4835" r="12.7394" transform="rotate(61.6123 287.857 99.4835)" fill="white" stroke="#895674" stroke-width="2.78698"/>
<rect x="287.208" y="98.7594" width="9.80051" height="1.71307" rx="0.856537" transform="rotate(25.7613 287.208 98.7594)" fill="#5F4756" stroke="#895674" stroke-width="1.71307"/>
<rect x="272.744" y="85.9919" width="12.3452" height="12.6307" rx="4.31676" transform="rotate(28.1561 272.744 85.9919)" fill="white" stroke="#895674" stroke-width="2.78698"/>
<circle cx="14.1329" cy="14.1329" r="12.7394" transform="matrix(-0.203953 0.978981 0.978981 0.203953 239.017 113.988)" fill="white" stroke="#895674" stroke-width="2.78698"/>
<rect x="-0.0553558" y="1.21006" width="9.80051" height="1.71307" rx="0.856537" transform="matrix(-0.738682 0.674054 0.674054 0.738682 249.529 128.97)" fill="#5F4756" stroke="#895674" stroke-width="1.71307"/>
<rect x="-0.00772062" y="1.97068" width="12.3452" height="12.6307" rx="4.31676" transform="matrix(-0.709872 0.704331 0.704331 0.709872 259.2 112.062)" fill="white" stroke="#895674" stroke-width="2.78698"/>
<path d="M243 141.5C243 141.5 199.5 169.999 240.5 190.5C281.5 211 265.5 221.5 265.5 221.5" stroke="#895674" stroke-width="4"/>
<path d="M298 105.5C298 105.5 366.5 146 324.5 152C282.5 158 292.5 195.5 292.5 195.5" stroke="#895674" stroke-width="4"/>
</svg>
