<svg width="1542" height="1542" viewBox="0 0 1542 1542" fill="none" xmlns="http://www.w3.org/2000/svg">
<path d="M1321.53 767.926C1321.53 1069.2 1077.3 1313.43 776.031 1313.43C474.76 1313.43 230.531 1069.2 230.531 767.926C230.531 466.654 474.76 222.426 776.031 222.426C1077.3 222.426 1321.53 466.654 1321.53 767.926Z" fill="#5F4756"/>
<path d="M770.531 293.878C1033.97 293.878 1247.53 507.217 1247.53 770.378C1247.53 1033.54 1033.97 1246.88 770.531 1246.88C507.088 1246.88 293.532 1033.54 293.531 770.378C293.531 507.217 507.088 293.878 770.531 293.878Z" stroke="black" stroke-width="7"/>
<path d="M771.031 417.878C966.269 417.878 1124.53 575.926 1124.53 770.878C1124.53 965.83 966.269 1123.88 771.031 1123.88C575.794 1123.88 417.532 965.83 417.531 770.878C417.531 575.926 575.794 417.878 771.031 417.878Z" stroke="black" stroke-width="7"/>
<path d="M368.173 402.516C424.688 340.729 494.668 292.782 572.693 262.39C650.717 231.997 734.691 219.975 818.109 227.254L770.689 770.689L368.173 402.516Z" fill="#D9D9D9" fill-opacity="0.38"/>
<path d="M1187.29 1122.85C1133.23 1186.79 1065.18 1237.44 988.404 1270.86C911.627 1304.28 828.188 1319.57 744.549 1315.56L770.689 770.689L1187.29 1122.85Z" fill="#D9D9D9" fill-opacity="0.38"/>
<path d="M1009.03 770.378C1009.03 901.822 902.475 1008.38 771.032 1008.38C639.588 1008.38 533.032 901.822 533.032 770.378C533.032 638.934 639.588 532.378 771.032 532.378C902.475 532.378 1009.03 638.934 1009.03 770.378Z" fill="#612C4B"/>
<circle cx="770.531" cy="770.878" r="118.5" fill="#F8C99E"/>
<ellipse cx="770.531" cy="770.878" rx="37.5" ry="33.5" fill="#FFF7F7"/>
</svg>
