<svg width="1428" height="960" viewBox="0 0 1428 960" fill="none" xmlns="http://www.w3.org/2000/svg">
<path d="M1321.53 479.926C1321.53 781.197 1077.3 1025.43 776.031 1025.43C474.76 1025.43 230.531 781.197 230.531 479.926C230.531 178.654 474.76 -65.5744 776.031 -65.5744C1077.3 -65.5744 1321.53 178.654 1321.53 479.926Z" fill="#5F4756"/>
<path d="M770.531 5.87769C1033.97 5.87769 1247.53 219.217 1247.53 482.378C1247.53 745.538 1033.97 958.878 770.531 958.878C507.088 958.878 293.532 745.538 293.531 482.378C293.531 219.217 507.088 5.87769 770.531 5.87769Z" stroke="black" stroke-width="7"/>
<path d="M771.031 129.878C966.269 129.878 1124.53 287.926 1124.53 482.878C1124.53 677.83 966.269 835.878 771.031 835.878C575.794 835.878 417.532 677.83 417.531 482.878C417.531 287.926 575.794 129.878 771.031 129.878Z" stroke="black" stroke-width="7"/>
<path d="M368.173 114.516C424.688 52.7293 494.668 4.78241 572.693 -25.6102C650.717 -56.0028 734.691 -68.0253 818.109 -60.7462L770.689 482.689L368.173 114.516Z" fill="#D9D9D9" fill-opacity="0.38"/>
<path d="M1187.29 834.845C1133.23 898.794 1065.18 949.44 988.404 982.859C911.627 1016.28 828.188 1031.57 744.549 1027.56L770.689 482.689L1187.29 834.845Z" fill="#D9D9D9" fill-opacity="0.38"/>
<path d="M1009.03 482.378C1009.03 613.822 902.476 720.378 771.032 720.378C639.588 720.378 533.032 613.822 533.032 482.378C533.032 350.934 639.588 244.378 771.032 244.378C902.476 244.378 1009.03 350.934 1009.03 482.378Z" fill="#612C4B"/>
<circle cx="770.531" cy="482.878" r="118.5" fill="#B19EF8"/>
<ellipse cx="770.531" cy="482.878" rx="37.5" ry="33.5" fill="#FFF7F7"/>
</svg>
