<svg width="29" height="29" viewBox="0 0 29 29" fill="none" xmlns="http://www.w3.org/2000/svg">
<path d="M25.9826 6.92758C26.5569 6.56864 26.5569 5.73223 25.9826 5.37329L19.1583 1.10808C18.5479 0.726583 17.7561 1.16542 17.7561 1.88522V10.4156C17.7561 11.1355 18.5479 11.5743 19.1583 11.1928L25.9826 6.92758Z" fill="#FFE8F5"/>
<path d="M2.56134 22.3167C1.98704 21.9578 1.98704 21.1214 2.56134 20.7625L9.38568 16.4972C9.99608 16.1157 10.7878 16.5546 10.7878 17.2744V25.8048C10.7878 26.5246 9.99608 26.9634 9.38568 26.582L2.56134 22.3167Z" fill="#FFE8F5"/>
<path d="M4.73511 13.0214C4.73511 9.09882 7.91498 5.91895 11.8376 5.91895H17.7563" stroke="#FFE8F5" stroke-width="1.83289" stroke-linecap="round" stroke-linejoin="round"/>
<path d="M22.4912 14.2047C22.4912 18.1273 19.3113 21.3071 15.3888 21.3071H9.47006" stroke="#FFE8F5" stroke-width="1.83289" stroke-linecap="round" stroke-linejoin="round"/>
</svg>
