<svg width="225" height="194" viewBox="0 0 225 194" fill="none" xmlns="http://www.w3.org/2000/svg">
<path d="M84.5725 24.9173C62.0065 -4.66324 49.0515 17.7725 45.0712 35.4792C44.5668 37.7227 46.4837 39.7017 48.7069 39.1145C50.5201 38.6356 52.1332 38.0289 53.6148 37.3914C57.1873 35.8543 86.9314 28.0094 84.5725 24.9173Z" fill="#FFF6C4"/>
<path d="M160.689 37.3636C191.799 12.428 196.581 41.5585 194.472 62.0859C194.231 64.4261 191.713 65.7119 189.803 64.3377C188.531 63.4225 187.414 62.4585 186.398 61.4922C183.407 58.6482 157.469 39.9447 160.689 37.3636Z" fill="#DDC4FF"/>
<path d="M100.009 177.597C73.714 173.489 49.7302 161.646 33.3341 144.675C16.9381 127.704 9.4729 106.994 12.5808 87.1005C15.6887 67.2075 29.1151 49.7612 49.9063 38.5995C70.6976 27.4379 97.1505 23.4753 123.446 27.5834L111.728 102.59L100.009 177.597Z" fill="white"/>
<path d="M99.1473 177.462C125.443 181.57 151.896 177.608 172.687 166.446C193.478 155.285 206.905 137.838 210.012 117.945C213.12 98.0522 205.655 77.342 189.259 60.3706C172.863 43.3992 148.879 31.5569 122.584 27.4488L110.866 102.456L99.1473 177.462Z" fill="white"/>
<path d="M102.482 104.923C102.166 104.2 102.773 103.413 103.553 103.535L118.837 105.923C119.617 106.045 119.955 106.979 119.433 107.572L109.915 118.387C109.431 118.936 108.541 118.797 108.248 118.126L102.482 104.923Z" fill="#895674"/>
<path d="M109.93 112.821C109.93 112.821 105.84 130.146 97.1164 132.928C88.3927 135.711 78.1483 121.675 78.1483 121.675" stroke="#895674" stroke-width="2" stroke-linecap="round"/>
<path d="M109.266 113.107C109.266 113.107 107.648 130.128 116 135.879C124.352 141.63 137.497 130.946 137.497 130.946" stroke="#895674" stroke-width="2" stroke-linecap="round"/>
<path d="M134.014 104.827L145.442 97.6123L153.989 109.341" stroke="#895674" stroke-width="2"/>
<line x1="170.014" y1="104.511" x2="184.516" y2="101.615" stroke="#895674" stroke-width="2.5" stroke-linecap="round"/>
<line x1="1.25" y1="-1.25" x2="16.0386" y2="-1.25" transform="matrix(-0.874193 -0.485579 -0.485579 0.874193 52.8791 87.835)" stroke="#895674" stroke-width="2.5" stroke-linecap="round"/>
<line x1="168.854" y1="115.238" x2="183.461" y2="117.549" stroke="#895674" stroke-width="2.5" stroke-linecap="round"/>
<line x1="1.25" y1="-1.25" x2="16.0386" y2="-1.25" transform="matrix(-0.988316 -0.152421 -0.152421 0.988316 52.3196 98.2944)" stroke="#895674" stroke-width="2.5" stroke-linecap="round"/>
<line x1="164.703" y1="126.047" x2="178.088" y2="132.335" stroke="#895674" stroke-width="2.5" stroke-linecap="round"/>
<line x1="1.25" y1="-1.25" x2="16.0386" y2="-1.25" transform="matrix(-0.991658 0.128895 0.128895 0.991658 52.6457 109.399)" stroke="#895674" stroke-width="2.5" stroke-linecap="round"/>
<path d="M123.185 27.9779C150.455 32.2383 173.78 44.4529 189.46 60.6879C205.14 76.9221 213.118 97.1002 209.948 117.393C206.778 137.686 193.024 154.469 173.141 165.147C153.256 175.826 127.316 180.345 100.046 176.085C72.7761 171.824 49.4508 159.609 33.7708 143.374C18.0916 127.139 10.1126 106.961 13.283 86.6683C16.4535 66.3753 30.2068 49.5924 50.0905 38.9142C69.9752 28.2355 95.9149 23.7175 123.185 27.9779Z" stroke="#895674" stroke-width="3"/>
<path d="M46.3635 42.0946C46.3635 42.0946 47.9859 17.6942 58.1658 10.7749C67.4672 4.45266 87.5007 28.6523 87.5007 28.6523" stroke="#895674" stroke-width="3"/>
<path d="M193 64.6526C193 64.6526 198.52 40.3461 190.936 30.6516C184.006 21.7935 158.501 38.1526 158.501 38.1526" stroke="#895674" stroke-width="3"/>
<circle cx="74.6904" cy="90.7354" r="5.46082" transform="rotate(8.87953 74.6904 90.7354)" fill="#895674"/>
</svg>
