<svg width="789" height="752" viewBox="0 0 789 752" fill="none" xmlns="http://www.w3.org/2000/svg">
<path d="M556.36 -193.808C772.068 -193.808 946.935 -18.9417 946.935 196.767C946.935 412.476 772.068 587.342 556.36 587.342C340.651 587.342 165.784 412.476 165.784 196.767C165.784 -18.9416 340.651 -193.808 556.36 -193.808Z" fill="#5F4756" stroke="black"/>
<path d="M552.417 -142.093C740.736 -142.092 893.393 10.4105 893.393 198.525C893.393 386.639 740.736 539.143 552.417 539.143C364.098 539.143 211.441 386.639 211.441 198.525C211.441 10.4104 364.098 -142.093 552.417 -142.093Z" stroke="black" stroke-width="7"/>
<path d="M552.789 -53.1816C692.211 -53.1816 805.227 59.6827 805.227 198.897C805.226 338.112 692.211 450.977 552.789 450.977C413.367 450.977 300.352 338.112 300.352 198.897C300.352 59.6827 413.367 -53.1816 552.789 -53.1816Z" stroke="black" stroke-width="7"/>
<path d="M263.947 -65.4327C304.464 -109.728 354.633 -144.102 410.57 -165.891C466.507 -187.68 526.709 -196.299 586.512 -191.08L552.516 198.515L263.947 -65.4327Z" fill="#D9D9D9" fill-opacity="0.38"/>
<path d="M851.209 451.215C812.456 497.061 763.668 533.369 708.626 557.328C653.584 581.287 593.765 592.253 533.803 589.376L552.543 198.75L851.209 451.215Z" fill="#D9D9D9" fill-opacity="0.38"/>
<path d="M723.414 198.539C723.414 292.772 647.023 369.164 552.789 369.164C458.555 369.164 382.164 292.772 382.164 198.539C382.164 104.305 458.555 27.9139 552.789 27.9139C647.023 27.9139 723.414 104.305 723.414 198.539Z" fill="#612C4B"/>
<circle cx="552.431" cy="198.897" r="84.954" fill="#C6D4FF"/>
<ellipse cx="552.403" cy="198.87" rx="26.8842" ry="24.0165" fill="#FFF7F7"/>
</svg>
