<svg width="28" height="28" viewBox="0 0 28 28" fill="none" xmlns="http://www.w3.org/2000/svg">
<path d="M18.6665 21.0001C16.8266 21.0001 15.1041 20.2798 13.8262 19.0571" stroke="#FFE8F5" stroke-width="2.41667" stroke-linecap="round" stroke-linejoin="round"/>
<path d="M8.34737 9.39395C6.75372 7.88676 4.61593 7 2.3335 7" stroke="#FFE8F5" stroke-width="2.41667" stroke-linecap="round" stroke-linejoin="round"/>
<path d="M26.3604 22.2529C27.1176 21.7796 27.1176 20.6768 26.3604 20.2035L20.5153 16.5503C19.7104 16.0473 18.6665 16.6259 18.6665 17.575V24.8814C18.6665 25.8305 19.7104 26.4091 20.5153 25.9061L26.3604 22.2529Z" fill="#FFE8F5"/>
<path d="M18.6668 7C15.8409 7 13.2922 8.69916 12.2053 11.3077L10.4104 15.6154C9.05181 18.876 5.86588 21 2.3335 21" stroke="#FFE8F5" stroke-width="2.41667" stroke-linecap="round" stroke-linejoin="round"/>
<path d="M25.1939 8.25287C25.9511 7.77961 25.9511 6.67681 25.1939 6.20354L19.3487 2.55034C18.5439 2.04734 17.5 2.62594 17.5 3.57501V10.8814C17.5 11.8305 18.5439 12.4091 19.3487 11.9061L25.1939 8.25287Z" fill="#FFE8F5"/>
</svg>
