<svg fill="#ffffff" viewBox="0 0 256 256" id="Flat" xmlns="http://www.w3.org/2000/svg" stroke="#ffffff"><g id="SVGRepo_bgCarrier" stroke-width="0"></g><g id="SVGRepo_tracerCarrier" stroke-linecap="round" stroke-linejoin="round"></g><g id="SVGRepo_iconCarrier"> <path d="M231.39062,123.06152A8,8,0,0,1,224,128H184v56a8.00039,8.00039,0,0,1-8,8H80a8.00039,8.00039,0,0,1-8-8V128H32a8.00065,8.00065,0,0,1-5.65723-13.65723l96-96a8.003,8.003,0,0,1,11.31446,0l96,96A8.002,8.002,0,0,1,231.39062,123.06152ZM176,208H80a8,8,0,0,0,0,16h96a8,8,0,0,0,0-16Z"></path> </g></svg>