<svg width="265" height="262" viewBox="0 0 265 262" fill="none" xmlns="http://www.w3.org/2000/svg">
<path d="M81.6967 33.0518C13.4558 3.97444 13.0764 55.6256 23.603 90.2442C24.9367 94.6304 30.2082 96.1751 33.4849 92.9688C36.1573 90.3538 38.3571 87.7141 40.2985 85.1505C44.9797 78.9691 88.8301 36.0914 81.6967 33.0518Z" fill="#FFC600"/>
<path d="M183.656 26.7727C264.76 -0.45991 250.049 62.7379 229.247 102.564C227.059 106.754 221.394 107.284 218.871 103.287C216.418 99.401 214.631 95.5441 213.131 91.8596C210.029 84.2387 172.052 31.7217 179.557 28.3495C180.718 27.8281 182.077 27.3029 183.656 26.7727Z" fill="#FFC600"/>
<path d="M29.9925 97.9865C29.9925 97.9865 11.1496 56.5399 21.9896 34.5232C31.8941 14.4064 87.922 36.7938 87.922 36.7938" stroke="#765C00" stroke-width="5.98122"/>
<path d="M233.916 96.8966C233.916 96.8966 253.554 51.2473 242.203 29.4901C231.831 9.61033 175.894 32.4289 175.894 32.4289" stroke="#765C00" stroke-width="5.98122"/>
<circle cx="132.898" cy="130.812" r="110.436" fill="url(#paint0_linear_4636_661)" stroke="#765C00" stroke-width="4"/>
<circle cx="132.898" cy="130.812" r="84.6442" fill="#A88300"/>
<mask id="mask0_4636_661" style="mask-type:alpha" maskUnits="userSpaceOnUse" x="53" y="55" width="170" height="170">
<circle cx="137.841" cy="139.849" r="84.8412" fill="#BFFFF3"/>
</mask>
<g mask="url(#mask0_4636_661)">
<circle cx="133.323" cy="130.812" r="84.8412" fill="#BFFFF3"/>
</g>
<path d="M26.2623 234.787L38.1953 208.525L26.2623 182.262L52.5247 194.195L78.7871 182.262L66.8541 208.525L78.7871 234.787L52.5247 222.854L26.2623 234.787Z" fill="white"/>
<defs>
<linearGradient id="paint0_linear_4636_661" x1="132.898" y1="22.3763" x2="132.898" y2="239.248" gradientUnits="userSpaceOnUse">
<stop stop-color="#FFC600"/>
<stop offset="1" stop-color="#FFDE69"/>
</linearGradient>
</defs>
</svg>
