<svg width="91" height="89" viewBox="0 0 91 89" fill="none" xmlns="http://www.w3.org/2000/svg">
<path d="M27.8861 11.2491C4.87435 1.44381 4.53578 18.6107 8.01616 30.3875C8.50708 32.0486 10.4996 32.6342 11.7176 31.4026C12.5201 30.5911 13.1947 29.7751 13.7964 28.9806C15.3896 26.8768 30.3139 12.2836 27.8861 11.2491Z" fill="#FFC600"/>
<path d="M62.5873 9.11201C89.806 -0.0273223 85.3171 20.7591 78.3989 34.3361C77.5233 36.0543 75.2157 36.2683 74.2391 34.6055C73.8459 33.936 73.5066 33.2709 73.2042 32.6164C71.9368 29.8738 59.7232 10.0737 62.5873 9.11201Z" fill="#FFC600"/>
<path d="M10.2888 33.3493C10.2888 33.3493 3.87569 19.2431 7.565 11.7499C10.936 4.9032 30.0048 12.5227 30.0048 12.5227" stroke="#765C00" stroke-width="5.98122"/>
<path d="M79.693 32.9784C79.693 32.9784 86.377 17.4418 82.5135 10.0369C78.9834 3.27088 59.9458 11.0371 59.9458 11.0371" stroke="#765C00" stroke-width="5.98122"/>
<circle cx="45.3121" cy="44.5214" r="38.9057" fill="url(#paint0_linear_4636_661)" stroke="#765C00" stroke-width="4"/>
<circle cx="45.3122" cy="44.5214" r="28.8083" fill="#A88300"/>
<mask id="mask0_4636_661" style="mask-type:alpha" maskUnits="userSpaceOnUse" x="18" y="18" width="58" height="59">
<circle cx="46.9946" cy="47.5969" r="28.8753" fill="#BFFFF3"/>
</mask>
<g mask="url(#mask0_4636_661)">
<circle cx="45.4569" cy="44.5214" r="28.8753" fill="#BFFFF3"/>
</g>
<path d="M9.01924 79.9087L13.0806 70.9705L9.01924 62.0322L17.9575 66.0935L26.8958 62.0322L22.8345 70.9705L26.8958 79.9087L17.9575 75.8474L9.01924 79.9087Z" fill="white"/>
<path d="M46.6742 26.8774L46.8783 26.9692L47.0824 26.8774L53.2416 24.1255L56.6927 30.2133L56.8002 30.4038L57.014 30.4536L63.5511 31.9751L62.9144 39.0385L62.8959 39.2446L63.0287 39.4038L67.4984 44.7553L63.0287 50.1069L62.8959 50.2661L62.9144 50.4731L63.5511 57.5346L57.014 59.0571L56.8002 59.1069L56.6927 59.2973L53.2416 65.3842L47.0824 62.6333L46.8783 62.5415L46.6742 62.6333L40.514 65.3852L37.0648 59.2973L36.9564 59.1069L36.7426 59.0571L30.2045 57.5346L30.8422 50.4731L30.8607 50.2661L30.7279 50.1069L26.2572 44.7553L30.7279 39.4038L30.8607 39.2446L30.8422 39.0385L30.2045 31.9751L36.7426 30.4536L36.9564 30.4038L37.0648 30.2133L40.514 24.1245L46.6742 26.8774ZM52.7045 37.2182L44.8441 45.4536L41.0482 41.5698L40.6859 41.1997L40.3285 41.5737L37.6215 44.4106L37.2914 44.7553L37.6215 45.101L44.4867 52.2924L44.848 52.6714L45.2094 52.2924L56.1351 40.8462L56.4594 40.5073L56.141 40.1626L53.434 37.2251L53.0726 36.8325L52.7045 37.2182Z" fill="#198286" stroke="#198286"/>
<line x1="2.00487" y1="-2.00487" x2="10.4468" y2="-2.00487" transform="matrix(-0.918057 -0.396448 -0.29557 0.955321 11.4398 39.6514)" stroke="#765C00" stroke-width="4.00974" stroke-linecap="round"/>
<line x1="2.00487" y1="-2.00487" x2="10.4468" y2="-2.00487" transform="matrix(0.918057 -0.396448 0.29557 0.955321 78.111 39.6514)" stroke="#765C00" stroke-width="4.00974" stroke-linecap="round"/>
<line x1="2.00487" y1="-2.00487" x2="10.1662" y2="-2.00487" transform="matrix(-0.999991 0.00422011 0.00302357 0.999996 12.1988 48.3169)" stroke="#765C00" stroke-width="4.00974" stroke-linecap="round"/>
<line x1="2.00487" y1="-2.00487" x2="10.1662" y2="-2.00487" transform="matrix(0.999991 0.00422011 -0.00302357 0.999995 77.352 48.3169)" stroke="#765C00" stroke-width="4.00974" stroke-linecap="round"/>
<line x1="2.00487" y1="-2.00487" x2="10.3562" y2="-2.00487" transform="matrix(-0.944677 0.328001 0.241406 0.970424 13.6453 57.398)" stroke="#765C00" stroke-width="4.00974" stroke-linecap="round"/>
<line x1="2.00487" y1="-2.00487" x2="10.3562" y2="-2.00487" transform="matrix(0.944677 0.328001 -0.241406 0.970424 75.9055 57.398)" stroke="#765C00" stroke-width="4.00974" stroke-linecap="round"/>
<defs>
<linearGradient id="paint0_linear_4636_661" x1="45.3121" y1="7.61569" x2="45.3121" y2="81.4271" gradientUnits="userSpaceOnUse">
<stop stop-color="#FFC600"/>
<stop offset="1" stop-color="#FFDE69"/>
</linearGradient>
</defs>
</svg>
