<svg width="28" height="28" viewBox="0 0 28 28" fill="none" xmlns="http://www.w3.org/2000/svg">
<path d="M13.4431 3.32579C14.0496 2.89253 14.8922 3.32612 14.8922 4.07153V23.421C14.8922 24.1664 14.0496 24.6 13.4431 24.1667L6.87329 19.474H2.9784C1.96612 19.474 1.14551 18.6534 1.14551 17.6412V9.85137C1.14551 8.8391 1.96612 8.01849 2.9784 8.01849H6.87329L13.4431 3.32579Z" fill="#FFE8F5"/>
<path d="M18.3218 19.3657C19.7432 17.9188 20.62 15.935 20.62 13.7464C20.62 11.5486 19.7359 9.55736 18.3038 8.10889" stroke="#FFE8F5" stroke-width="1.83289" stroke-linecap="round" stroke-linejoin="round"/>
<path d="M21.5115 4.83594C23.7918 7.11629 25.2023 10.2666 25.2023 13.7463C25.2023 17.226 23.7918 20.3762 21.5115 22.6566" stroke="#FFE8F5" stroke-width="1.83289" stroke-linecap="round" stroke-linejoin="round"/>
</svg>
