<svg width="48" height="48" viewBox="0 0 48 48" fill="none" xmlns="http://www.w3.org/2000/svg">
<mask id="mask0_4277_637" style="mask-type:alpha" maskUnits="userSpaceOnUse" x="0" y="0" width="48" height="48">
<rect width="48" height="48" fill="#D9D9D9"/>
</mask>
<g mask="url(#mask0_4277_637)">
<path d="M36.4816 25.8141V22.1861H44.6106V25.8141H36.4816ZM39.2631 40.3071L32.7256 35.4281L34.9131 32.5221L41.4381 37.3891L39.2631 40.3071ZM35.0131 15.4446L32.8256 12.5391L39.2631 7.69312L41.4381 10.6031L35.0131 15.4446ZM9.72412 38.3351V30.3351H7.02712C6.01212 30.2978 5.15229 29.9108 4.44762 29.1741C3.74296 28.4371 3.39062 27.5615 3.39062 26.5471V21.4531C3.39062 20.4091 3.76229 19.5155 4.50562 18.7721C5.24896 18.0288 6.14262 17.6571 7.18662 17.6571H15.6301L26.0646 11.4021V36.5981L15.6301 30.3351H13.5756V38.3351H9.72412ZM22.2686 29.9011V18.0991L16.6216 21.4531H7.18662V26.5471H16.6216L22.2686 29.9011ZM28.0646 31.0351V16.9571C29.0626 17.7838 29.8633 18.8053 30.4666 20.0216C31.0696 21.2383 31.3711 22.5645 31.3711 24.0001C31.3711 25.4358 31.0701 26.7616 30.4681 27.9776C29.8661 29.1936 29.065 30.2128 28.0646 31.0351Z" fill="#8A226F"/>
</g>
</svg>
