<svg width="52" height="52" viewBox="0 0 52 52" fill="none" xmlns="http://www.w3.org/2000/svg">
<path fill-rule="evenodd" clip-rule="evenodd" d="M51.75 25.875C51.75 11.5846 40.1654 0 25.875 0C11.5846 0 0 11.5846 0 25.875C0 40.1654 11.5846 51.75 25.875 51.75C40.1654 51.75 51.75 40.1654 51.75 25.875ZM28.75 37.375C28.75 35.7872 27.4628 34.5 25.875 34.5C24.2872 34.5 23 35.7872 23 37.375C23 38.9628 24.2872 40.25 25.875 40.25C27.4628 40.25 28.75 38.9628 28.75 37.375ZM28.75 11.5V28.75H23V11.5H28.75Z" fill="#895674"/>
</svg>
