<svg fill="#895674" height="200px" width="200px" version="1.1" id="Layer_1" xmlns="http://www.w3.org/2000/svg" xmlns:xlink="http://www.w3.org/1999/xlink" viewBox="0 0 512.001 512.001" xml:space="preserve"><g id="SVGRepo_bgCarrier" stroke-width="0"></g><g id="SVGRepo_tracerCarrier" stroke-linecap="round" stroke-linejoin="round"></g><g id="SVGRepo_iconCarrier"> <g> <g> <path d="M396.112,92.563c-0.963-4.455-5.35-7.286-9.812-6.323l-17.612,3.808c-4.455,0.963-7.286,5.356-6.323,9.812 c0.837,3.869,4.258,6.511,8.06,6.511c0.578,0,1.164-0.061,1.752-0.188l17.612-3.808 C394.244,101.412,397.075,97.019,396.112,92.563z"></path> </g> </g> <g> <g> <path d="M343.287,103.986c-0.963-4.455-5.35-7.289-9.812-6.323l-146.436,31.66c-15.845,3.419-27.344,17.667-27.344,33.876 c0,0-0.013,111.187-0.013,190.891c0,4.558,3.695,8.254,8.254,8.254c4.558,0,8.253-3.695,8.253-8.254 c0-79.703,0.013-190.889,0.013-190.89c0-8.489,6.022-15.951,14.323-17.743l146.439-31.661 C341.42,112.833,344.251,108.44,343.287,103.986z"></path> </g> </g> <g> <g> <path d="M501.942,52.276c0-15.884-7.089-30.711-19.448-40.674c-12.343-9.961-28.33-13.758-43.872-10.414L179.596,57.192 c-31.936,6.901-55.115,35.627-55.115,68.301v249.317c-15.56-3.804-32.695-3.389-49.37,1.326 c-44.663,12.626-72.967,52.469-63.095,88.818c4.118,15.161,14.567,28.141,29.423,36.55c12.278,6.949,26.777,10.5,41.92,10.499 c9.136,0,18.509-1.292,27.766-3.91c38.288-10.823,65.657-42.335,65.078-74.881c-0.004-0.551-0.011-8.616-0.012-43.908 c0-4.558-3.695-8.254-8.254-8.254s-8.254,3.695-8.254,8.254c0.001,43.489,0.01,43.943,0.014,44.153 c0.449,25.224-21.867,49.933-53.064,58.751c-20.388,5.765-41.188,3.917-57.065-5.07c-11.15-6.311-18.628-15.478-21.623-26.511 c-7.511-27.655,15.662-58.432,51.656-68.607c17.34-4.903,35.113-4.284,50.045,1.741c2.544,1.027,5.432,0.722,7.704-0.812 c2.274-1.535,3.637-4.098,3.637-6.842V125.492c0-24.955,17.703-46.894,42.096-52.167l259.017-56.002 c10.635-2.287,21.579,0.308,30.026,7.126c8.456,6.817,13.305,16.96,13.305,27.826c-0.003,31.625-0.03,309.027,0.001,310.752 c0.451,25.222-21.865,49.931-53.063,58.75c-20.388,5.764-41.188,3.917-57.065-5.07c-11.15-6.311-18.628-15.478-21.623-26.511 c-7.511-27.655,15.662-58.432,51.656-68.607c17.34-4.901,35.113-4.283,50.045,1.741c2.543,1.028,5.432,0.722,7.704-0.812 c2.274-1.535,3.637-4.098,3.637-6.842V89.983c0-5.182-2.313-10.02-6.334-13.266c-4.04-3.272-9.27-4.508-14.324-3.398 l-24.551,5.309c-4.456,0.963-7.286,5.356-6.323,9.812c0.963,4.455,5.355,7.291,9.812,6.323l24.577-5.314 c0.149-0.032,0.237-0.051,0.432,0.107c0.206,0.166,0.206,0.26,0.206,0.429v214.395c-15.561-3.804-32.695-3.388-49.37,1.326 c-44.663,12.626-72.967,52.469-63.095,88.818c4.118,15.161,14.567,28.141,29.422,36.55c19.685,11.141,45.084,13.545,69.687,6.59 c38.291-10.825,65.661-42.338,65.077-74.877C501.911,359.142,501.941,55.345,501.942,52.276z"></path> </g> </g> </g></svg>